<svg version="1.1" viewBox="0.0 0.0 295.18635170603676 204.29396325459317" fill="none" stroke="none" stroke-linecap="square" stroke-miterlimit="10" xmlns:xlink="http://www.w3.org/1999/xlink" xmlns="http://www.w3.org/2000/svg"><clipPath id="p.0"><path d="m0 0l295.18634 0l0 204.29396l-295.18634 0l0 -204.29396z" clip-rule="nonzero"/></clipPath><g clip-path="url(#p.0)"><path fill="#ffffff" d="m0 0l295.18634 0l0 204.29396l-295.18634 0z" fill-rule="evenodd"/><path fill="#d9d9d9" d="m92.69029 99.656166l0 0c0 -8.975716 7.2762527 -16.251968 16.251968 -16.251968l0 0c4.3102875 0 8.444038 1.7122574 11.491875 4.7600937c3.0478363 3.0478363 4.7600937 7.181587 4.7600937 11.491875l0 0c0 8.975716 -7.2762604 16.251968 -16.251968 16.251968l0 0c-8.975716 0 -16.251968 -7.2762527 -16.251968 -16.251968z" fill-rule="evenodd"/><path stroke="#9900ff" stroke-width="1.0" stroke-linejoin="round" stroke-linecap="butt" stroke-dasharray="4.0,3.0" d="m92.69029 99.656166l0 0c0 -8.975716 7.2762527 -16.251968 16.251968 -16.251968l0 0c4.3102875 0 8.444038 1.7122574 11.491875 4.7600937c3.0478363 3.0478363 4.7600937 7.181587 4.7600937 11.491875l0 0c0 8.975716 -7.2762604 16.251968 -16.251968 16.251968l0 0c-8.975716 0 -16.251968 -7.2762527 -16.251968 -16.251968z" fill-rule="evenodd"/><path fill="#d9d9d9" d="m164.69029 99.656166l0 0c0 -8.975716 7.276245 -16.251968 16.251968 -16.251968l0 0c4.3102875 0 8.444031 1.7122574 11.491867 4.7600937c3.0478363 3.0478363 4.7601013 7.181587 4.7601013 11.491875l0 0c0 8.975716 -7.2762604 16.251968 -16.251968 16.251968l0 0c-8.975723 0 -16.251968 -7.2762527 -16.251968 -16.251968z" fill-rule="evenodd"/><path stroke="#9900ff" stroke-width="1.0" stroke-linejoin="round" stroke-linecap="butt" stroke-dasharray="4.0,3.0" d="m164.69029 99.656166l0 0c0 -8.975716 7.276245 -16.251968 16.251968 -16.251968l0 0c4.3102875 0 8.444031 1.7122574 11.491867 4.7600937c3.0478363 3.0478363 4.7601013 7.181587 4.7601013 11.491875l0 0c0 8.975716 -7.2762604 16.251968 -16.251968 16.251968l0 0c-8.975723 0 -16.251968 -7.2762527 -16.251968 -16.251968z" fill-rule="evenodd"/><path fill="#d9d9d9" d="m148.69029 171.82677l0 0c0 -8.975708 7.276245 -16.251968 16.251968 -16.251968l0 0c4.3102875 0 8.444031 1.712265 11.491867 4.7601013c3.0478363 3.0478363 4.7601013 7.1815796 4.7601013 11.491867l0 0c0 8.975723 -7.2762604 16.251968 -16.251968 16.251968l0 0c-8.975723 0 -16.251968 -7.276245 -16.251968 -16.251968z" fill-rule="evenodd"/><path stroke="#000000" stroke-width="1.0" stroke-linejoin="round" stroke-linecap="butt" d="m148.69029 171.82677l0 0c0 -8.975708 7.276245 -16.251968 16.251968 -16.251968l0 0c4.3102875 0 8.444031 1.712265 11.491867 4.7601013c3.0478363 3.0478363 4.7601013 7.1815796 4.7601013 11.491867l0 0c0 8.975723 -7.2762604 16.251968 -16.251968 16.251968l0 0c-8.975723 0 -16.251968 -7.276245 -16.251968 -16.251968z" fill-rule="evenodd"/><path fill="#d9d9d9" d="m236.69029 99.485565l0 0c0 -8.975716 7.276245 -16.251968 16.251968 -16.251968l0 0c4.310272 0 8.444031 1.7122574 11.491882 4.7600937c3.047821 3.0478287 4.760071 7.181587 4.760071 11.491875l0 0c0 8.975716 -7.276245 16.251968 -16.251953 16.251968l0 0c-8.975723 0 -16.251968 -7.2762527 -16.251968 -16.251968z" fill-rule="evenodd"/><path stroke="#9900ff" stroke-width="1.0" stroke-linejoin="round" stroke-linecap="butt" stroke-dasharray="4.0,3.0" d="m236.69029 99.485565l0 0c0 -8.975716 7.276245 -16.251968 16.251968 -16.251968l0 0c4.310272 0 8.444031 1.7122574 11.491882 4.7600937c3.047821 3.0478287 4.760071 7.181587 4.760071 11.491875l0 0c0 8.975716 -7.276245 16.251968 -16.251953 16.251968l0 0c-8.975723 0 -16.251968 -7.2762527 -16.251968 -16.251968z" fill-rule="evenodd"/><path fill="#d9d9d9" d="m236.69029 171.48557l0 0c0 -8.975708 7.276245 -16.251968 16.251968 -16.251968l0 0c4.310272 0 8.444031 1.7122498 11.491882 4.760086c3.047821 3.0478363 4.760071 7.181595 4.760071 11.491882l0 0c0 8.975708 -7.276245 16.251968 -16.251953 16.251968l0 0c-8.975723 0 -16.251968 -7.2762604 -16.251968 -16.251968z" fill-rule="evenodd"/><path stroke="#9900ff" stroke-width="1.0" stroke-linejoin="round" stroke-linecap="butt" stroke-dasharray="4.0,3.0" d="m236.69029 171.48557l0 0c0 -8.975708 7.276245 -16.251968 16.251968 -16.251968l0 0c4.310272 0 8.444031 1.7122498 11.491882 4.760086c3.047821 3.0478363 4.760071 7.181595 4.760071 11.491882l0 0c0 8.975708 -7.276245 16.251968 -16.251953 16.251968l0 0c-8.975723 0 -16.251968 -7.2762604 -16.251968 -16.251968z" fill-rule="evenodd"/><path fill="#000000" fill-opacity="0.0" d="m120.434135 111.14805l33.007866 49.196846" fill-rule="evenodd"/><path stroke="#000000" stroke-width="1.0" stroke-linejoin="round" stroke-linecap="butt" d="m120.434135 111.14805l33.007866 49.196846" fill-rule="evenodd"/><path fill="#000000" fill-opacity="0.0" d="m125.19423 99.656166l39.496063 0" fill-rule="evenodd"/><path stroke="#9900ff" stroke-width="1.0" stroke-linejoin="round" stroke-linecap="butt" stroke-dasharray="4.0,3.0" d="m128.6213 99.656166l36.068985 0" fill-rule="evenodd"/><path fill="#9900ff" stroke="#9900ff" stroke-width="1.0" stroke-linecap="butt" d="m128.6213 99.656166l1.124588 -1.1245804l-3.0897675 1.1245804l3.0897675 1.124588z" fill-rule="evenodd"/><path fill="#000000" fill-opacity="0.0" d="m197.19423 99.656166l39.496063 -0.15747833" fill-rule="evenodd"/><path stroke="#9900ff" stroke-width="1.0" stroke-linejoin="round" stroke-linecap="butt" stroke-dasharray="4.0,3.0" d="m197.19423 99.656166l36.069 -0.14381409" fill-rule="evenodd"/><path fill="#9900ff" stroke="#9900ff" stroke-width="1.0" stroke-linecap="butt" d="m233.26323 99.51235l-1.1200867 1.1290588l3.0852509 -1.1368942l-3.094223 -1.1122589z" fill-rule="evenodd"/><path fill="#000000" fill-opacity="0.0" d="m192.43413 111.14805l49.007874 48.850395" fill-rule="evenodd"/><path stroke="#9900ff" stroke-width="1.0" stroke-linejoin="round" stroke-linecap="butt" stroke-dasharray="4.0,3.0" d="m192.43414 111.14805l46.580658 46.430977" fill-rule="evenodd"/><path fill="#9900ff" stroke="#9900ff" stroke-width="1.0" stroke-linecap="butt" d="m239.0148 157.57903l-1.5904083 0.0025634766l2.9822388 1.3847961l-1.3943939 -2.9777527z" fill-rule="evenodd"/><path fill="#000000" fill-opacity="0.0" d="m124.07612 54.32021l113.73228 0l0 16.157482l-113.73228 0z" fill-rule="evenodd"/><path fill="#9900ff" d="m167.0718 69.5427l0.21875 -1.03125q-0.328125 0.015625 -0.53125 -0.171875q-0.203125 -0.171875 -0.328125 -0.46875q-0.109375 -0.28125 -0.15625 -0.65625q-0.046875 -0.359375 -0.046875 -0.703125l0 -1.0625q0 -0.78125 -0.375 -1.359375q-0.375 -0.59375 -1.1875 -0.90625q0.796875 -0.3125 1.171875 -0.90625q0.390625 -0.609375 0.390625 -1.390625l0 -1.046875q0 -0.359375 0.015625 -0.71875q0.015625 -0.359375 0.125 -0.65625q0.09375 -0.296875 0.296875 -0.46875q0.21875 -0.1875 0.625 -0.171875l-0.21875 -1.015625q-0.640625 0 -1.09375 0.25q-0.453125 0.234375 -0.734375 0.609375q-0.34375 0.4375 -0.5 1.03125q-0.15625 0.578125 -0.15625 1.140625l0 1.046875q0 0.890625 -0.40625 1.265625q-0.390625 0.375 -1.21875 0.375l0 1.296875q0.828125 0 1.21875 0.390625q0.40625 0.375 0.40625 1.234375l0 1.0625q0 0.515625 0.140625 1.046875q0.140625 0.53125 0.453125 0.984375q0.296875 0.4375 0.765625 0.71875q0.46875 0.28125 1.125 0.28125zm5.904434 -3.65625q-0.4375 0 -0.71875 -0.171875q-0.28125 -0.1875 -0.4375 -0.46875q-0.171875 -0.296875 -0.234375 -0.671875q-0.0625 -0.375 -0.0625 -0.796875l0 -0.1875q0 -0.40625 0.0625 -0.78125q0.0625 -0.375 0.234375 -0.671875q0.171875 -0.296875 0.4375 -0.46875q0.28125 -0.171875 0.71875 -0.171875q0.296875 0 0.53125 0.109375q0.25 0.09375 0.421875 0.25q0.1875 0.171875 0.265625 0.40625q0.09375 0.234375 0.09375 0.5l1.703125 0q0 -0.625 -0.21875 -1.125q-0.21875 -0.515625 -0.609375 -0.875q-0.40625 -0.34375 -0.96875 -0.53125q-0.546875 -0.203125 -1.203125 -0.203125q-0.8125 0 -1.421875 0.28125q-0.609375 0.28125 -1.03125 0.765625q-0.421875 0.46875 -0.625 1.125q-0.203125 0.640625 -0.203125 1.390625l0 0.1875q0 0.75 0.203125 1.40625q0.21875 0.640625 0.625 1.125q0.421875 0.46875 1.03125 0.75q0.625 0.28125 1.4375 0.28125q0.609375 0 1.15625 -0.1875q0.546875 -0.203125 0.953125 -0.53125q0.40625 -0.34375 0.640625 -0.8125q0.234375 -0.46875 0.234375 -1.015625l-1.703125 0q0 0.25 -0.109375 0.453125q-0.09375 0.203125 -0.265625 0.34375q-0.1875 0.140625 -0.4375 0.21875q-0.234375 0.078125 -0.5 0.078125zm6.013809 -5.734375l-1.5625 0l0 7.046875l1.65625 0l0 -5.265625q0.03125 -0.09375 0.0625 -0.15625q0.046875 -0.078125 0.09375 -0.125q0.078125 -0.078125 0.15625 -0.109375q0.09375 -0.046875 0.21875 -0.046875q0.09375 0 0.1875 0.03125q0.09375 0.03125 0.171875 0.09375q0.0625 0.078125 0.09375 0.21875q0.046875 0.125 0.046875 0.328125l0 5.03125l1.59375 0l0 -5.1875q0 -0.078125 0 -0.125q0 -0.046875 0 -0.0625q0.03125 -0.078125 0.078125 -0.125q0.046875 -0.0625 0.109375 -0.109375q0.0625 -0.046875 0.140625 -0.0625q0.09375 -0.03125 0.1875 -0.03125q0.09375 0 0.1875 0.03125q0.109375 0.03125 0.171875 0.09375q0.078125 0.078125 0.109375 0.21875q0.046875 0.125 0.046875 0.328125l0 5.03125l1.640625 0l0 -5.03125q0 -0.578125 -0.109375 -0.984375q-0.109375 -0.40625 -0.3125 -0.671875q-0.203125 -0.25 -0.484375 -0.359375q-0.28125 -0.125 -0.59375 -0.125q-0.25 0 -0.46875 0.0625q-0.21875 0.0625 -0.390625 0.1875q-0.125 0.09375 -0.25 0.21875q-0.109375 0.125 -0.203125 0.28125q-0.0625 -0.171875 -0.140625 -0.296875q-0.078125 -0.125 -0.1875 -0.21875q-0.140625 -0.109375 -0.34375 -0.171875q-0.1875 -0.0625 -0.4375 -0.0625q-0.515625 0 -0.875 0.265625q-0.34375 0.265625 -0.546875 0.71875l-0.046875 -0.859375zm6.685684 3.46875l0 0.140625q0 0.765625 0.1875 1.421875q0.1875 0.65625 0.546875 1.125q0.34375 0.484375 0.859375 0.75q0.515625 0.265625 1.15625 0.265625q0.59375 0 1.03125 -0.21875q0.453125 -0.234375 0.78125 -0.640625l0.09375 0.734375l1.640625 0l0 -10.0l-1.8125 0l0 3.59375q-0.328125 -0.375 -0.75 -0.5625q-0.421875 -0.203125 -0.96875 -0.203125q-0.65625 0 -1.171875 0.265625q-0.515625 0.25 -0.875 0.734375q-0.359375 0.46875 -0.546875 1.140625q-0.171875 0.65625 -0.171875 1.453125zm1.796875 0.140625l0 -0.140625q0 -0.4375 0.078125 -0.828125q0.078125 -0.390625 0.25 -0.671875q0.171875 -0.296875 0.4375 -0.453125q0.28125 -0.171875 0.65625 -0.171875q0.46875 0 0.765625 0.203125q0.3125 0.203125 0.5 0.546875l0 2.859375q-0.1875 0.34375 -0.5 0.546875q-0.3125 0.203125 -0.78125 0.203125q-0.375 0 -0.640625 -0.15625q-0.265625 -0.171875 -0.4375 -0.453125q-0.171875 -0.28125 -0.25 -0.65625q-0.078125 -0.390625 -0.078125 -0.828125zm7.623184 4.75l0.21875 1.03125q0.65625 0 1.125 -0.28125q0.46875 -0.265625 0.765625 -0.71875q0.296875 -0.4375 0.4375 -0.984375q0.15625 -0.546875 0.15625 -1.046875l0 -1.0625q0 -0.3125 0.046875 -0.546875q0.046875 -0.25 0.140625 -0.4375q0.1875 -0.328125 0.546875 -0.484375q0.359375 -0.15625 0.890625 -0.15625l0 -1.296875q-0.484375 0 -0.828125 -0.125q-0.328125 -0.125 -0.515625 -0.390625q-0.15625 -0.1875 -0.21875 -0.46875q-0.0625 -0.28125 -0.0625 -0.65625l0 -1.046875q0 -0.5 -0.125 -1.03125q-0.125 -0.53125 -0.40625 -0.96875q-0.296875 -0.46875 -0.78125 -0.75q-0.46875 -0.28125 -1.171875 -0.28125l-0.21875 1.015625q0.40625 -0.015625 0.609375 0.171875q0.21875 0.171875 0.3125 0.46875q0.109375 0.296875 0.125 0.65625q0.015625 0.359375 0.015625 0.71875l0 1.046875q0 0.453125 0.125 0.859375q0.125 0.390625 0.375 0.71875q0.171875 0.21875 0.40625 0.40625q0.25 0.1875 0.5625 0.3125q-0.375 0.15625 -0.65625 0.390625q-0.28125 0.234375 -0.453125 0.53125q-0.1875 0.28125 -0.28125 0.625q-0.078125 0.34375 -0.078125 0.71875l0 1.0625q0 0.34375 -0.046875 0.703125q-0.046875 0.375 -0.171875 0.65625q-0.109375 0.296875 -0.3125 0.46875q-0.203125 0.1875 -0.53125 0.171875z" fill-rule="nonzero"/><path fill="#000000" fill-opacity="0.0" d="m180.94226 70.47769l0 0" fill-rule="evenodd"/><path stroke="#000000" stroke-width="1.0" stroke-linejoin="round" stroke-linecap="butt" d="m180.94226 70.47769l0 0" fill-rule="evenodd"/><path fill="#000000" fill-opacity="0.0" d="m180.94226 70.47769l0 12.9133835" fill-rule="evenodd"/><path stroke="#9900ff" stroke-width="1.0" stroke-linejoin="round" stroke-linecap="butt" d="m180.94226 70.47769l0 9.486298" fill-rule="evenodd"/><path fill="#9900ff" stroke="#9900ff" stroke-width="1.0" stroke-linecap="butt" d="m180.94226 79.96399l-1.124588 -1.1245804l1.124588 3.0897675l1.1245728 -3.0897675z" fill-rule="evenodd"/><path fill="#000000" fill-opacity="0.0" d="m5.304462 6.32021l32.503937 0l0 16.15748l-32.503937 0z" fill-rule="evenodd"/><path fill="#000000" d="m14.370746 19.19895l2.546876 0q0.625 0 1.1875 -0.15625q0.5625 -0.15625 1.015625 -0.453125q0.40625 -0.25 0.734375 -0.609375q0.328125 -0.375 0.578125 -0.8125q0.25 -0.484375 0.390625 -1.0625q0.15625 -0.59375 0.15625 -1.25l0 -0.78125q0 -0.6875 -0.15625 -1.28125q-0.15625 -0.609375 -0.4375 -1.109375q-0.234375 -0.40625 -0.5625 -0.75q-0.3125 -0.359375 -0.734375 -0.59375q-0.46875 -0.296875 -1.046875 -0.453125q-0.5625 -0.15625 -1.21875 -0.15625l-2.453126 0l0 9.46875zm1.843751 -7.984375l0.609375 0q0.328125 0 0.609375 0.078125q0.296875 0.0625 0.53125 0.203125q0.296875 0.1875 0.53125 0.46875q0.234375 0.28125 0.375 0.640625q0.109375 0.3125 0.171875 0.6875q0.0625 0.359375 0.0625 0.765625l0 0.796875q0 0.4375 -0.0625 0.8125q-0.0625 0.375 -0.171875 0.6875q-0.140625 0.34375 -0.34375 0.609375q-0.203125 0.265625 -0.453125 0.4375q-0.234375 0.15625 -0.53125 0.25q-0.28125 0.078125 -0.625 0.078125l-0.703125 0l0 -6.515625zm8.091934 6.9375q0 0.5 0.328125 0.84375q0.34375 0.328125 0.921875 0.328125q0.578125 0 0.921875 -0.328125q0.34375 -0.34375 0.34375 -0.84375q0 -0.515625 -0.34375 -0.859375q-0.328125 -0.34375 -0.921875 -0.34375q-0.59375 0 -0.921875 0.359375q-0.328125 0.34375 -0.328125 0.84375z" fill-rule="nonzero"/><path fill="#000000" fill-opacity="0.0" d="m53.194225 99.656166l39.496067 0" fill-rule="evenodd"/><path stroke="#9900ff" stroke-width="1.0" stroke-linejoin="round" stroke-linecap="butt" stroke-dasharray="4.0,3.0" d="m56.621315 99.656166l36.068977 0" fill-rule="evenodd"/><path fill="#9900ff" stroke="#9900ff" stroke-width="1.0" stroke-linecap="butt" d="m56.62131 99.656166l1.1245842 -1.1245804l-3.0897675 1.1245804l3.0897675 1.124588z" fill-rule="evenodd"/><path fill="#d9d9d9" d="m76.69029 27.82677l0 0c0 -8.975714 7.2762527 -16.251968 16.251968 -16.251968l0 0c4.3102875 0 8.444038 1.7122555 11.491875 4.760091c3.0478363 3.0478363 4.7600937 7.181587 4.7600937 11.491877l0 0c0 8.975716 -7.2762604 16.251968 -16.251968 16.251968l0 0c-8.975716 0 -16.251968 -7.2762527 -16.251968 -16.251968z" fill-rule="evenodd"/><path stroke="#000000" stroke-width="1.0" stroke-linejoin="round" stroke-linecap="butt" d="m76.69029 27.82677l0 0c0 -8.975714 7.2762527 -16.251968 16.251968 -16.251968l0 0c4.3102875 0 8.444038 1.7122555 11.491875 4.760091c3.0478363 3.0478363 4.7600937 7.181587 4.7600937 11.491877l0 0c0 8.975716 -7.2762604 16.251968 -16.251968 16.251968l0 0c-8.975716 0 -16.251968 -7.2762527 -16.251968 -16.251968z" fill-rule="evenodd"/><path fill="#000000" fill-opacity="0.0" d="m48.434135 88.16429l33.007874 -48.850395" fill-rule="evenodd"/><path stroke="#000000" stroke-width="1.0" stroke-linejoin="round" stroke-linecap="butt" d="m48.434135 88.16429l33.007874 -48.850395" fill-rule="evenodd"/><path fill="#000000" fill-opacity="0.0" d="m92.07612 9.916011l61.95275 0l0 35.559055l-61.95275 0z" fill-rule="evenodd"/><path fill="#000000" d="m113.805214 30.669134q0 0.5 0.328125 0.84375q0.34375 0.328125 0.921875 0.328125q0.578125 0 0.921875 -0.328125q0.34375 -0.34375 0.34375 -0.84375q0 -0.515625 -0.34375 -0.859375q-0.328125 -0.34375 -0.921875 -0.34375q-0.59375 0 -0.921875 0.359375q-0.328125 0.34375 -0.328125 0.84375zm7.998184 0q0 0.5 0.328125 0.84375q0.34375 0.328125 0.921875 0.328125q0.578125 0 0.921875 -0.328125q0.34375763 -0.34375 0.34375763 -0.84375q0 -0.515625 -0.34375763 -0.859375q-0.328125 -0.34375 -0.921875 -0.34375q-0.59375 0 -0.921875 0.359375q-0.328125 0.34375 -0.328125 0.84375zm7.998192 0q0 0.5 0.328125 0.84375q0.34375 0.328125 0.921875 0.328125q0.578125 0 0.921875 -0.328125q0.34375 -0.34375 0.34375 -0.84375q0 -0.515625 -0.34375 -0.859375q-0.328125 -0.34375 -0.921875 -0.34375q-0.59375 0 -0.921875 0.359375q-0.328125 0.34375 -0.328125 0.84375z" fill-rule="nonzero"/><path fill="#d9d9d9" d="m20.690289 99.656166l0 0c0 -8.975716 7.2762547 -16.251968 16.251968 -16.251968l0 0c4.3102913 0 8.444042 1.7122574 11.4918785 4.7600937c3.0478325 3.0478363 4.76009 7.181587 4.76009 11.491875l0 0c0 8.975716 -7.2762527 16.251968 -16.251968 16.251968l0 0c-8.975714 0 -16.251968 -7.2762527 -16.251968 -16.251968z" fill-rule="evenodd"/><path stroke="#9900ff" stroke-width="1.0" stroke-linejoin="round" stroke-linecap="butt" stroke-dasharray="4.0,3.0" d="m20.690289 99.656166l0 0c0 -8.975716 7.2762547 -16.251968 16.251968 -16.251968l0 0c4.3102913 0 8.444042 1.7122574 11.4918785 4.7600937c3.0478325 3.0478363 4.76009 7.181587 4.76009 11.491875l0 0c0 8.975716 -7.2762527 16.251968 -16.251968 16.251968l0 0c-8.975714 0 -16.251968 -7.2762527 -16.251968 -16.251968z" fill-rule="evenodd"/><path fill="#000000" fill-opacity="0.0" d="m164.07611 153.91602l61.95276 0l0 35.55905l-61.95276 0z" fill-rule="evenodd"/><path fill="#000000" d="m185.80522 174.66913q0 0.5 0.328125 0.84375q0.34375 0.328125 0.921875 0.328125q0.578125 0 0.921875 -0.328125q0.34375 -0.34375 0.34375 -0.84375q0 -0.515625 -0.34375 -0.859375q-0.328125 -0.34375 -0.921875 -0.34375q-0.59375 0 -0.921875 0.359375q-0.328125 0.34375 -0.328125 0.84375zm7.998184 0q0 0.5 0.328125 0.84375q0.34375 0.328125 0.921875 0.328125q0.578125 0 0.921875 -0.328125q0.34375 -0.34375 0.34375 -0.84375q0 -0.515625 -0.34375 -0.859375q-0.328125 -0.34375 -0.921875 -0.34375q-0.59375 0 -0.921875 0.359375q-0.328125 0.34375 -0.328125 0.84375zm7.998184 0q0 0.5 0.328125 0.84375q0.34375 0.328125 0.921875 0.328125q0.578125 0 0.921875 -0.328125q0.34375 -0.34375 0.34375 -0.84375q0 -0.515625 -0.34375 -0.859375q-0.328125 -0.34375 -0.921875 -0.34375q-0.59375 0 -0.921875 0.359375q-0.328125 0.34375 -0.328125 0.84375z" fill-rule="nonzero"/><path fill="#000000" fill-opacity="0.0" d="m8.060368 99.656166l12.629921 0" fill-rule="evenodd"/><path stroke="#9900ff" stroke-width="1.0" stroke-linejoin="round" stroke-linecap="butt" stroke-dasharray="4.0,3.0" d="m11.487454 99.656166l9.202834 0" fill-rule="evenodd"/><path fill="#9900ff" stroke="#9900ff" stroke-width="1.0" stroke-linecap="butt" d="m11.487454 99.656166l1.1245832 -1.1245804l-3.0897684 1.1245804l3.0897684 1.124588z" fill-rule="evenodd"/><path fill="#000000" fill-opacity="0.0" d="m281.85565 99.485565l-12.661438 0" fill-rule="evenodd"/><path stroke="#9900ff" stroke-width="1.0" stroke-linejoin="round" stroke-linecap="butt" stroke-dasharray="4.0,3.0" d="m278.42856 99.485565l-9.2343445 0" fill-rule="evenodd"/><path fill="#9900ff" stroke="#9900ff" stroke-width="1.0" stroke-linecap="butt" d="m278.42856 99.485565l-1.1245728 1.1245804l3.0897522 -1.1245804l-3.0897522 -1.124588z" fill-rule="evenodd"/><path fill="#000000" fill-opacity="0.0" d="m281.84778 171.48557l-12.661438 0" fill-rule="evenodd"/><path stroke="#9900ff" stroke-width="1.0" stroke-linejoin="round" stroke-linecap="butt" stroke-dasharray="4.0,3.0" d="m278.4207 171.48557l-9.2343445 0" fill-rule="evenodd"/><path fill="#9900ff" stroke="#9900ff" stroke-width="1.0" stroke-linecap="butt" d="m278.4207 171.48557l-1.1245728 1.124588l3.0897522 -1.124588l-3.0897522 -1.124588z" fill-rule="evenodd"/><path fill="#d9d9d9" d="m236.69029 27.485565l0 0c0 -8.975716 7.276245 -16.251968 16.251968 -16.251968l0 0c4.310272 0 8.444031 1.7122564 11.491882 4.760092c3.047821 3.0478354 4.760071 7.1815863 4.760071 11.491878l0 0c0 8.975712 -7.276245 16.251968 -16.251953 16.251968l0 0c-8.975723 0 -16.251968 -7.2762566 -16.251968 -16.251968z" fill-rule="evenodd"/><path stroke="#9900ff" stroke-width="1.0" stroke-linejoin="round" stroke-linecap="butt" stroke-dasharray="4.0,3.0" d="m236.69029 27.485565l0 0c0 -8.975716 7.276245 -16.251968 16.251968 -16.251968l0 0c4.310272 0 8.444031 1.7122564 11.491882 4.760092c3.047821 3.0478354 4.760071 7.1815863 4.760071 11.491878l0 0c0 8.975712 -7.276245 16.251968 -16.251953 16.251968l0 0c-8.975723 0 -16.251968 -7.2762566 -16.251968 -16.251968z" fill-rule="evenodd"/><path fill="#000000" fill-opacity="0.0" d="m192.43413 88.16429l49.007874 -49.19685" fill-rule="evenodd"/><path stroke="#9900ff" stroke-width="1.0" stroke-linejoin="round" stroke-linecap="butt" stroke-dasharray="4.0,3.0" d="m192.43414 88.16429l46.58922 -46.768875" fill-rule="evenodd"/><path fill="#9900ff" stroke="#9900ff" stroke-width="1.0" stroke-linecap="butt" d="m239.02336 41.395416l0.0030670166 1.5903969l1.3838501 -2.982666l-2.9773102 1.3953285z" fill-rule="evenodd"/><path fill="#000000" fill-opacity="0.0" d="m281.85565 27.485565l-12.661438 0" fill-rule="evenodd"/><path stroke="#9900ff" stroke-width="1.0" stroke-linejoin="round" stroke-linecap="butt" stroke-dasharray="4.0,3.0" d="m278.42856 27.485565l-9.2343445 0" fill-rule="evenodd"/><path fill="#9900ff" stroke="#9900ff" stroke-width="1.0" stroke-linecap="butt" d="m278.42856 27.485565l-1.1245728 1.1245823l3.0897522 -1.1245823l-3.0897522 -1.1245842z" fill-rule="evenodd"/><path fill="#000000" fill-opacity="0.0" d="m273.2152 7.2125983l-8.787384 8.787401" fill-rule="evenodd"/><path stroke="#9900ff" stroke-width="1.0" stroke-linejoin="round" stroke-linecap="butt" stroke-dasharray="4.0,3.0" d="m270.7919 9.635915l-6.3640747 6.364085" fill-rule="evenodd"/><path fill="#9900ff" stroke="#9900ff" stroke-width="1.0" stroke-linecap="butt" d="m270.7919 9.635915l0 1.5904007l1.3895874 -2.9799957l-2.9799805 1.389595z" fill-rule="evenodd"/><path fill="#000000" fill-opacity="0.0" d="m273.2152 79.2126l-8.787384 8.787399" fill-rule="evenodd"/><path stroke="#9900ff" stroke-width="1.0" stroke-linejoin="round" stroke-linecap="butt" stroke-dasharray="4.0,3.0" d="m270.7919 81.63592l-6.3640747 6.3640823" fill-rule="evenodd"/><path fill="#9900ff" stroke="#9900ff" stroke-width="1.0" stroke-linecap="butt" d="m270.7919 81.63592l0 1.5904007l1.3895874 -2.9799957l-2.9799805 1.389595z" fill-rule="evenodd"/><path fill="#000000" fill-opacity="0.0" d="m273.2152 151.2126l-8.787384 8.787399" fill-rule="evenodd"/><path stroke="#9900ff" stroke-width="1.0" stroke-linejoin="round" stroke-linecap="butt" stroke-dasharray="4.0,3.0" d="m270.7919 153.63593l-6.3640747 6.3640747" fill-rule="evenodd"/><path fill="#9900ff" stroke="#9900ff" stroke-width="1.0" stroke-linecap="butt" d="m270.7919 153.63591l0 1.5904083l1.3895874 -2.9799957l-2.9799805 1.3895874z" fill-rule="evenodd"/><path fill="#000000" fill-opacity="0.0" d="m271.7874 47.356956l-7.3700867 -7.370079" fill-rule="evenodd"/><path stroke="#9900ff" stroke-width="1.0" stroke-linejoin="round" stroke-linecap="butt" stroke-dasharray="4.0,3.0" d="m269.3641 44.93364l-4.9467773 -4.946762" fill-rule="evenodd"/><path fill="#9900ff" stroke="#9900ff" stroke-width="1.0" stroke-linecap="butt" d="m269.36407 44.93364l-1.5903931 0l2.980011 1.389595l-1.3896179 -2.9799957z" fill-rule="evenodd"/><path fill="#000000" fill-opacity="0.0" d="m271.7874 119.35696l-7.3700867 -7.370079" fill-rule="evenodd"/><path stroke="#9900ff" stroke-width="1.0" stroke-linejoin="round" stroke-linecap="butt" stroke-dasharray="4.0,3.0" d="m269.3641 116.93363l-4.9467773 -4.9467545" fill-rule="evenodd"/><path fill="#9900ff" stroke="#9900ff" stroke-width="1.0" stroke-linecap="butt" d="m269.36407 116.93364l-1.5903931 0l2.980011 1.389595l-1.3896179 -2.9799957z" fill-rule="evenodd"/><path fill="#000000" fill-opacity="0.0" d="m271.7874 191.35695l-7.3700867 -7.3700714" fill-rule="evenodd"/><path stroke="#9900ff" stroke-width="1.0" stroke-linejoin="round" stroke-linecap="butt" stroke-dasharray="4.0,3.0" d="m269.3641 188.93364l-4.9467773 -4.946762" fill-rule="evenodd"/><path fill="#9900ff" stroke="#9900ff" stroke-width="1.0" stroke-linecap="butt" d="m269.36407 188.93364l-1.5903931 0l2.980011 1.3895874l-1.3896179 -2.9799957z" fill-rule="evenodd"/></g></svg>