<svg version="1.1" viewBox="0.0 0.0 631.4671916010499 229.51181102362204" fill="none" stroke="none" stroke-linecap="square" stroke-miterlimit="10" xmlns:xlink="http://www.w3.org/1999/xlink" xmlns="http://www.w3.org/2000/svg"><clipPath id="p.0"><path d="m0 0l631.46716 0l0 229.51181l-631.46716 0l0 -229.51181z" clip-rule="nonzero"/></clipPath><g clip-path="url(#p.0)"><path fill="#ffffff" d="m0 0l631.46716 0l0 229.51181l-631.46716 0z" fill-rule="evenodd"/><path fill="#d9d9d9" d="m15.769029 99.656166l0 0c0 -8.975716 7.2762537 -16.251968 16.251968 -16.251968l0 0c4.3102913 0 8.444042 1.7122574 11.4918785 4.7600937c3.0478363 3.0478363 4.76009 7.181587 4.76009 11.491875l0 0c0 8.975716 -7.2762527 16.251968 -16.251968 16.251968l0 0c-8.975714 0 -16.251968 -7.2762527 -16.251968 -16.251968z" fill-rule="evenodd"/><path stroke="#000000" stroke-width="1.0" stroke-linejoin="round" stroke-linecap="butt" d="m15.769029 99.656166l0 0c0 -8.975716 7.2762537 -16.251968 16.251968 -16.251968l0 0c4.3102913 0 8.444042 1.7122574 11.4918785 4.7600937c3.0478363 3.0478363 4.76009 7.181587 4.76009 11.491875l0 0c0 8.975716 -7.2762527 16.251968 -16.251968 16.251968l0 0c-8.975714 0 -16.251968 -7.2762527 -16.251968 -16.251968z" fill-rule="evenodd"/><path fill="#6aa84f" d="m76.69029 51.656166l0 0c0 -8.975712 7.2762527 -16.251968 16.251968 -16.251968l0 0c4.3102875 0 8.444038 1.7122574 11.491875 4.7600937c3.0478363 3.0478363 4.7600937 7.181587 4.7600937 11.491875l0 0c0 8.975716 -7.2762604 16.251968 -16.251968 16.251968l0 0c-8.975716 0 -16.251968 -7.2762527 -16.251968 -16.251968z" fill-rule="evenodd"/><path stroke="#000000" stroke-width="1.0" stroke-linejoin="round" stroke-linecap="butt" d="m76.69029 51.656166l0 0c0 -8.975712 7.2762527 -16.251968 16.251968 -16.251968l0 0c4.3102875 0 8.444038 1.7122574 11.491875 4.7600937c3.0478363 3.0478363 4.7600937 7.181587 4.7600937 11.491875l0 0c0 8.975716 -7.2762604 16.251968 -16.251968 16.251968l0 0c-8.975716 0 -16.251968 -7.2762527 -16.251968 -16.251968z" fill-rule="evenodd"/><path fill="#d9d9d9" d="m76.69029 147.82677l0 0c0 -8.975708 7.2762527 -16.251968 16.251968 -16.251968l0 0c4.3102875 0 8.444038 1.712265 11.491875 4.7601013c3.0478363 3.0478363 4.7600937 7.1815796 4.7600937 11.491867l0 0c0 8.975723 -7.2762604 16.251968 -16.251968 16.251968l0 0c-8.975716 0 -16.251968 -7.276245 -16.251968 -16.251968z" fill-rule="evenodd"/><path stroke="#000000" stroke-width="1.0" stroke-linejoin="round" stroke-linecap="butt" d="m76.69029 147.82677l0 0c0 -8.975708 7.2762527 -16.251968 16.251968 -16.251968l0 0c4.3102875 0 8.444038 1.712265 11.491875 4.7601013c3.0478363 3.0478363 4.7600937 7.1815796 4.7600937 11.491867l0 0c0 8.975723 -7.2762604 16.251968 -16.251968 16.251968l0 0c-8.975716 0 -16.251968 -7.276245 -16.251968 -16.251968z" fill-rule="evenodd"/><path fill="#d9d9d9" d="m140.69029 123.485565l0 0c0 -8.975716 7.276245 -16.251968 16.251968 -16.251968l0 0c4.3102875 0 8.444031 1.7122574 11.491867 4.7600937c3.0478363 3.0478287 4.7601013 7.181587 4.7601013 11.491875l0 0c0 8.975708 -7.2762604 16.251968 -16.251968 16.251968l0 0c-8.975723 0 -16.251968 -7.2762604 -16.251968 -16.251968z" fill-rule="evenodd"/><path stroke="#000000" stroke-width="1.0" stroke-linejoin="round" stroke-linecap="butt" d="m140.69029 123.485565l0 0c0 -8.975716 7.276245 -16.251968 16.251968 -16.251968l0 0c4.3102875 0 8.444031 1.7122574 11.491867 4.7600937c3.0478363 3.0478287 4.7601013 7.181587 4.7601013 11.491875l0 0c0 8.975708 -7.2762604 16.251968 -16.251968 16.251968l0 0c-8.975723 0 -16.251968 -7.2762604 -16.251968 -16.251968z" fill-rule="evenodd"/><path fill="#6aa84f" d="m140.69029 27.485565l0 0c0 -8.975716 7.276245 -16.251968 16.251968 -16.251968l0 0c4.3102875 0 8.444031 1.7122564 11.491867 4.760092c3.0478363 3.0478354 4.7601013 7.1815863 4.7601013 11.491878l0 0c0 8.975712 -7.2762604 16.251968 -16.251968 16.251968l0 0c-8.975723 0 -16.251968 -7.2762566 -16.251968 -16.251968z" fill-rule="evenodd"/><path stroke="#000000" stroke-width="1.0" stroke-linejoin="round" stroke-linecap="butt" d="m140.69029 27.485565l0 0c0 -8.975716 7.276245 -16.251968 16.251968 -16.251968l0 0c4.3102875 0 8.444031 1.7122564 11.491867 4.760092c3.0478363 3.0478354 4.7601013 7.1815863 4.7601013 11.491878l0 0c0 8.975712 -7.2762604 16.251968 -16.251968 16.251968l0 0c-8.975723 0 -16.251968 -7.2762566 -16.251968 -16.251968z" fill-rule="evenodd"/><path fill="#6aa84f" d="m140.69029 75.485565l0 0c0 -8.975716 7.276245 -16.251968 16.251968 -16.251968l0 0c4.3102875 0 8.444031 1.7122536 11.491867 4.76009c3.0478363 3.0478325 4.7601013 7.181591 4.7601013 11.4918785l0 0c0 8.975716 -7.2762604 16.251968 -16.251968 16.251968l0 0c-8.975723 0 -16.251968 -7.2762527 -16.251968 -16.251968z" fill-rule="evenodd"/><path stroke="#000000" stroke-width="1.0" stroke-linejoin="round" stroke-linecap="butt" d="m140.69029 75.485565l0 0c0 -8.975716 7.276245 -16.251968 16.251968 -16.251968l0 0c4.3102875 0 8.444031 1.7122536 11.491867 4.76009c3.0478363 3.0478325 4.7601013 7.181591 4.7601013 11.4918785l0 0c0 8.975716 -7.2762604 16.251968 -16.251968 16.251968l0 0c-8.975723 0 -16.251968 -7.2762527 -16.251968 -16.251968z" fill-rule="evenodd"/><path fill="#d9d9d9" d="m140.69029 171.48557l0 0c0 -8.975708 7.276245 -16.251968 16.251968 -16.251968l0 0c4.3102875 0 8.444031 1.7122498 11.491867 4.760086c3.0478363 3.0478363 4.7601013 7.181595 4.7601013 11.491882l0 0c0 8.975708 -7.2762604 16.251968 -16.251968 16.251968l0 0c-8.975723 0 -16.251968 -7.2762604 -16.251968 -16.251968z" fill-rule="evenodd"/><path stroke="#000000" stroke-width="1.0" stroke-linejoin="round" stroke-linecap="butt" d="m140.69029 171.48557l0 0c0 -8.975708 7.276245 -16.251968 16.251968 -16.251968l0 0c4.3102875 0 8.444031 1.7122498 11.491867 4.760086c3.0478363 3.0478363 4.7601013 7.181595 4.7601013 11.491882l0 0c0 8.975708 -7.2762604 16.251968 -16.251968 16.251968l0 0c-8.975723 0 -16.251968 -7.2762604 -16.251968 -16.251968z" fill-rule="evenodd"/><path fill="#000000" fill-opacity="0.0" d="m43.512875 111.14805l33.165356 36.69291" fill-rule="evenodd"/><path stroke="#000000" stroke-width="1.0" stroke-linejoin="round" stroke-linecap="butt" d="m43.512875 111.14805l33.165356 36.69291" fill-rule="evenodd"/><path fill="#000000" fill-opacity="0.0" d="m43.512875 88.16429l33.165356 -36.503937" fill-rule="evenodd"/><path stroke="#000000" stroke-width="1.0" stroke-linejoin="round" stroke-linecap="butt" d="m43.512875 88.16429l33.165356 -36.503937" fill-rule="evenodd"/><path fill="#000000" fill-opacity="0.0" d="m104.434135 40.16429l36.25196 -12.692913" fill-rule="evenodd"/><path stroke="#000000" stroke-width="1.0" stroke-linejoin="round" stroke-linecap="butt" d="m104.434135 40.16429l36.25196 -12.692913" fill-rule="evenodd"/><path fill="#000000" fill-opacity="0.0" d="m104.434135 63.148045l36.25196 12.346455" fill-rule="evenodd"/><path stroke="#000000" stroke-width="1.0" stroke-linejoin="round" stroke-linecap="butt" d="m104.434135 63.148045l36.25196 12.346455" fill-rule="evenodd"/><path fill="#000000" fill-opacity="0.0" d="m104.434135 136.3349l36.25196 -12.850403" fill-rule="evenodd"/><path stroke="#000000" stroke-width="1.0" stroke-linejoin="round" stroke-linecap="butt" d="m104.434135 136.3349l36.25196 -12.850403" fill-rule="evenodd"/><path fill="#000000" fill-opacity="0.0" d="m104.434135 159.31865l36.25196 12.157486" fill-rule="evenodd"/><path stroke="#000000" stroke-width="1.0" stroke-linejoin="round" stroke-linecap="butt" d="m104.434135 159.31865l36.25196 12.157486" fill-rule="evenodd"/><path fill="#000000" fill-opacity="0.0" d="m36.076115 6.32021l113.732285 0l0 16.15748l-113.732285 0z" fill-rule="evenodd"/><path fill="#6aa84f" d="m79.0718 21.5427l0.21875 -1.03125q-0.328125 0.015625 -0.53125 -0.171875q-0.203125 -0.171875 -0.328125 -0.46875q-0.109375 -0.28125 -0.15625 -0.65625q-0.046875 -0.359375 -0.046875 -0.703125l0 -1.0625q0 -0.78125 -0.375 -1.359375q-0.375 -0.59375 -1.1875 -0.90625q0.796875 -0.3125 1.171875 -0.90625q0.390625 -0.609375 0.390625 -1.390625l0 -1.046875q0 -0.359375 0.015625 -0.71875q0.015625 -0.359375 0.125 -0.65625q0.09375 -0.296875 0.296875 -0.46875q0.21875 -0.1875 0.625 -0.171875l-0.21875 -1.015625q-0.640625 0 -1.09375 0.25q-0.453125 0.234375 -0.734375 0.609375q-0.34375 0.4375 -0.5 1.03125q-0.15625 0.578125 -0.15625 1.140625l0 1.046875q0 0.890625 -0.40625 1.265625q-0.390625 0.375 -1.21875 0.375l0 1.296875q0.828125 0 1.21875 0.390625q0.40625 0.375 0.40625 1.234375l0 1.0625q0 0.515625 0.140625 1.046875q0.140625 0.53125 0.453125 0.984375q0.296875 0.4375 0.765625 0.71875q0.46875 0.28125 1.125 0.28125zm5.904434 -3.65625q-0.4375 0 -0.71875 -0.171875q-0.28125 -0.1875 -0.4375 -0.46875q-0.171875 -0.296875 -0.234375 -0.671875q-0.0625 -0.375 -0.0625 -0.796875l0 -0.1875q0 -0.40625 0.0625 -0.78125q0.0625 -0.375 0.234375 -0.671875q0.171875 -0.296875 0.4375 -0.46875q0.28125 -0.171875 0.71875 -0.171875q0.296875 0 0.53125 0.109375q0.25 0.09375 0.421875 0.25q0.1875 0.171875 0.265625 0.40625q0.09375 0.234375 0.09375 0.5l1.703125 0q0 -0.625 -0.21875 -1.125q-0.21875 -0.515625 -0.609375 -0.875q-0.40625 -0.34375 -0.96875 -0.53125q-0.546875 -0.203125 -1.203125 -0.203125q-0.8125 0 -1.421875 0.28125q-0.609375 0.28125 -1.03125 0.765625q-0.421875 0.46875 -0.625 1.125q-0.203125 0.640625 -0.203125 1.390625l0 0.1875q0 0.75 0.203125 1.40625q0.21875 0.640625 0.625 1.125q0.421875 0.46875 1.03125 0.75q0.625 0.28125 1.4375 0.28125q0.609375 0 1.15625 -0.1875q0.546875 -0.203125 0.953125 -0.53125q0.40625 -0.34375 0.640625 -0.8125q0.234375 -0.46875 0.234375 -1.015625l-1.703125 0q0 0.25 -0.109375 0.453125q-0.09375 0.203125 -0.265625 0.34375q-0.1875 0.140625 -0.4375 0.21875q-0.234375 0.078125 -0.5 0.078125zm6.013809 -5.734375l-1.5625 0l0 7.046875l1.65625 0l0 -5.265625q0.03125 -0.09375 0.0625 -0.15625q0.046875 -0.078125 0.09375 -0.125q0.078125 -0.078125 0.15625 -0.109375q0.09375 -0.046875 0.21875 -0.046875q0.09375 0 0.1875 0.03125q0.09375 0.03125 0.171875 0.09375q0.0625 0.078125 0.09375 0.21875q0.046875 0.125 0.046875 0.328125l0 5.03125l1.59375 0l0 -5.1875q0 -0.078125 0 -0.125q0 -0.046875 0 -0.0625q0.03125 -0.078125 0.078125 -0.125q0.046875 -0.0625 0.109375 -0.109375q0.0625 -0.046875 0.140625 -0.0625q0.09375 -0.03125 0.1875 -0.03125q0.09375 0 0.1875 0.03125q0.109375 0.03125 0.171875 0.09375q0.078125 0.078125 0.109375 0.21875q0.046875 0.125 0.046875 0.328125l0 5.03125l1.640625 0l0 -5.03125q0 -0.578125 -0.109375 -0.984375q-0.109375 -0.40625 -0.3125 -0.671875q-0.203125 -0.25 -0.484375 -0.359375q-0.28125 -0.125 -0.59375 -0.125q-0.25 0 -0.46875 0.0625q-0.21875 0.0625 -0.390625 0.1875q-0.125 0.09375 -0.25 0.21875q-0.109375 0.125 -0.203125 0.28125q-0.0625 -0.171875 -0.140625 -0.296875q-0.078125 -0.125 -0.1875 -0.21875q-0.140625 -0.109375 -0.34375 -0.171875q-0.1875 -0.0625 -0.4375 -0.0625q-0.515625 0 -0.875 0.265625q-0.34375 0.265625 -0.546875 0.71875l-0.046875 -0.859375zm6.685684 3.46875l0 0.140625q0 0.765625 0.1875 1.421875q0.1875 0.65625 0.546875 1.125q0.34375 0.484375 0.859375 0.75q0.515625 0.265625 1.15625 0.265625q0.59375 0 1.03125 -0.21875q0.453125 -0.234375 0.78125 -0.640625l0.09375 0.734375l1.640625 0l0 -10.0l-1.8125 0l0 3.59375q-0.328125 -0.375 -0.75 -0.5625q-0.421875 -0.203125 -0.96875 -0.203125q-0.65625 0 -1.171875 0.265625q-0.515625 0.25 -0.875 0.734375q-0.359375 0.46875 -0.546875 1.140625q-0.171875 0.65625 -0.171875 1.453125zm1.796875 0.140625l0 -0.140625q0 -0.4375 0.078125 -0.828125q0.078125 -0.390625 0.25 -0.671875q0.171875 -0.296875 0.4375 -0.453125q0.28125 -0.171875 0.65625 -0.171875q0.46875 0 0.765625 0.203125q0.3125 0.203125 0.5 0.546875l0 2.859375q-0.1875 0.34375 -0.5 0.546875q-0.3125 0.203125 -0.78125 0.203125q-0.375 0 -0.640625 -0.15625q-0.265625 -0.171875 -0.4375 -0.453125q-0.171875 -0.28125 -0.25 -0.65625q-0.078125 -0.390625 -0.078125 -0.828125zm7.623184 4.75l0.21875 1.03125q0.65625 0 1.125 -0.28125q0.46875 -0.265625 0.765625 -0.71875q0.296875 -0.4375 0.4375 -0.984375q0.15625 -0.546875 0.15625 -1.046875l0 -1.0625q0 -0.3125 0.046875 -0.546875q0.046875 -0.25 0.140625 -0.4375q0.1875 -0.328125 0.546875 -0.484375q0.359375 -0.15625 0.890625 -0.15625l0 -1.296875q-0.484375 0 -0.828125 -0.125q-0.328125 -0.125 -0.515625 -0.390625q-0.15625 -0.1875 -0.21875 -0.46875q-0.0625 -0.28125 -0.0625 -0.65625l0 -1.046875q0 -0.5 -0.125 -1.03125q-0.125 -0.53125 -0.40625 -0.96875q-0.296875 -0.46875 -0.78125 -0.75q-0.46875 -0.28125 -1.171875 -0.28125l-0.21875 1.015625q0.40625 -0.015625 0.609375 0.171875q0.21875 0.171875 0.3125 0.46875q0.109375 0.296875 0.125 0.65625q0.015625 0.359375 0.015625 0.71875l0 1.046875q0 0.453125 0.125 0.859375q0.125 0.390625 0.375 0.71875q0.171875 0.21875 0.40625 0.40625q0.25 0.1875 0.5625 0.3125q-0.375 0.15625 -0.65625 0.390625q-0.28125 0.234375 -0.453125 0.53125q-0.1875 0.28125 -0.28125 0.625q-0.078125 0.34375 -0.078125 0.71875l0 1.0625q0 0.34375 -0.046875 0.703125q-0.046875 0.375 -0.171875 0.65625q-0.109375 0.296875 -0.3125 0.46875q-0.203125 0.1875 -0.53125 0.171875z" fill-rule="nonzero"/><path fill="#000000" fill-opacity="0.0" d="m92.94226 22.47769l0 0" fill-rule="evenodd"/><path stroke="#000000" stroke-width="1.0" stroke-linejoin="round" stroke-linecap="butt" d="m92.94226 22.47769l0 0" fill-rule="evenodd"/><path fill="#000000" fill-opacity="0.0" d="m92.94226 22.47769l0 12.913385" fill-rule="evenodd"/><path stroke="#6aa84f" stroke-width="1.0" stroke-linejoin="round" stroke-linecap="butt" d="m92.94226 22.47769l0 9.486301" fill-rule="evenodd"/><path fill="#6aa84f" stroke="#6aa84f" stroke-width="1.0" stroke-linecap="butt" d="m92.94226 31.96399l-1.124588 -1.1245842l1.124588 3.0897675l1.1245804 -3.0897675z" fill-rule="evenodd"/><path fill="#000000" fill-opacity="0.0" d="m156.07611 33.91601l61.95276 0l0 35.559055l-61.95276 0z" fill-rule="evenodd"/><path fill="#6aa84f" d="m177.80522 54.669136q0 0.5 0.328125 0.84375q0.34375 0.328125 0.921875 0.328125q0.578125 0 0.921875 -0.328125q0.34375 -0.34375 0.34375 -0.84375q0 -0.515625 -0.34375 -0.859375q-0.328125 -0.34375 -0.921875 -0.34375q-0.59375 0 -0.921875 0.359375q-0.328125 0.34375 -0.328125 0.84375zm7.998184 0q0 0.5 0.328125 0.84375q0.34375 0.328125 0.921875 0.328125q0.578125 0 0.921875 -0.328125q0.34375 -0.34375 0.34375 -0.84375q0 -0.515625 -0.34375 -0.859375q-0.328125 -0.34375 -0.921875 -0.34375q-0.59375 0 -0.921875 0.359375q-0.328125 0.34375 -0.328125 0.84375zm7.998184 0q0 0.5 0.328125 0.84375q0.34375 0.328125 0.921875 0.328125q0.578125 0 0.921875 -0.328125q0.34375 -0.34375 0.34375 -0.84375q0 -0.515625 -0.34375 -0.859375q-0.328125 -0.34375 -0.921875 -0.34375q-0.59375 0 -0.921875 0.359375q-0.328125 0.34375 -0.328125 0.84375z" fill-rule="nonzero"/><path fill="#000000" fill-opacity="0.0" d="m9.6482935 205.26772l16.944881 0l0 16.157486l-16.944881 0z" fill-rule="evenodd"/><path fill="#000000" d="m17.246643 218.95895l3.546875 -10.28125l-1.6875 0l-3.546876 10.28125l1.687501 0z" fill-rule="nonzero"/><path fill="#000000" fill-opacity="0.0" d="m92.07612 206.3202l106.51968 0l0 16.157486l-106.51968 0z" fill-rule="evenodd"/><path fill="#000000" d="m104.47095 220.01144l3.546875 -10.28125l-1.6875 0l-3.546875 10.28125l1.6875 0zm10.326309 -2.75q0 0.171875 -0.078125 0.3125q-0.078125 0.125 -0.234375 0.234375q-0.171875 0.109375 -0.4375 0.171875q-0.265625 0.046875 -0.609375 0.046875q-0.296875 0 -0.578125 -0.046875q-0.28125 -0.0625 -0.484375 -0.1875q-0.21875 -0.125 -0.359375 -0.328125q-0.140625 -0.21875 -0.15625 -0.5l-1.71875 0q0 0.4375 0.203125 0.859375q0.21875 0.421875 0.625 0.75q0.40625 0.34375 1.015625 0.5625q0.609375 0.203125 1.40625 0.203125q0.71875 0 1.296875 -0.15625q0.59375 -0.171875 1.015625 -0.453125q0.40625 -0.28125 0.625 -0.671875q0.234375 -0.40625 0.234375 -0.875q0 -0.5 -0.234375 -0.859375q-0.21875 -0.375 -0.609375 -0.640625q-0.40625 -0.25 -0.953125 -0.40625q-0.546875 -0.171875 -1.171875 -0.28125q-0.453125 -0.0625 -0.734375 -0.140625q-0.28125 -0.09375 -0.453125 -0.203125q-0.171875 -0.109375 -0.234375 -0.234375q-0.0625 -0.140625 -0.0625 -0.296875q0 -0.15625 0.078125 -0.296875q0.078125 -0.140625 0.21875 -0.234375q0.15625 -0.125 0.390625 -0.1875q0.25 -0.0625 0.59375 -0.0625q0.390625 0 0.65625 0.09375q0.28125 0.09375 0.4375 0.265625q0.125 0.125 0.171875 0.28125q0.0625 0.140625 0.0625 0.3125l1.8125 0q0 -0.484375 -0.21875 -0.890625q-0.203125 -0.421875 -0.609375 -0.734375q-0.40625 -0.296875 -1.0 -0.46875q-0.578125 -0.171875 -1.3125 -0.171875q-0.703125 0 -1.265625 0.1875q-0.5625 0.171875 -0.953125 0.46875q-0.390625 0.296875 -0.609375 0.703125q-0.203125 0.390625 -0.203125 0.828125q0 0.4375 0.203125 0.78125q0.21875 0.34375 0.578125 0.609375q0.359375 0.265625 0.875 0.453125q0.515625 0.1875 1.125 0.3125q0.484375 0.09375 0.796875 0.1875q0.328125 0.078125 0.53125 0.1875q0.1875 0.109375 0.25 0.234375q0.078125 0.125 0.078125 0.28125zm8.060684 1.9375l1.640625 0l0 -7.046875l-1.8125 0l0 4.9375q-0.09375 0.171875 -0.21875 0.3125q-0.109375 0.140625 -0.25 0.234375q-0.1875 0.109375 -0.421875 0.171875q-0.21875 0.0625 -0.515625 0.0625q-0.3125 0 -0.53125 -0.078125q-0.21875 -0.078125 -0.359375 -0.265625q-0.140625 -0.171875 -0.203125 -0.46875q-0.0625 -0.296875 -0.0625 -0.71875l0 -4.1875l-1.8125 0l0 4.171875q0 0.796875 0.171875 1.375q0.1875 0.5625 0.515625 0.921875q0.328125 0.375 0.78125 0.546875q0.453125 0.171875 1.0 0.171875q0.609375 0 1.109375 -0.296875q0.5 -0.3125 0.859375 -0.828125l0.109375 0.984375zm9.748184 -3.453125l0 -0.125q0 -0.640625 -0.125 -1.203125q-0.109375 -0.5625 -0.34375 -1.015625q-0.140625 -0.28125 -0.34375 -0.515625q-0.1875 -0.234375 -0.4375 -0.40625q-0.296875 -0.21875 -0.6875 -0.328125q-0.375 -0.125 -0.828125 -0.125q-0.328125 0 -0.609375 0.078125q-0.28125 0.0625 -0.53125 0.203125q-0.15625 0.078125 -0.3125 0.21875q-0.15625 0.125 -0.28125 0.265625l0 -3.59375l-1.8125 0l0 10.0l1.625 0l0.09375 -0.75q0.109375 0.140625 0.234375 0.265625q0.125 0.125 0.265625 0.21875q0.265625 0.1875 0.59375 0.28125q0.34375 0.109375 0.75 0.109375q0.453125 0 0.828125 -0.109375q0.375 -0.109375 0.671875 -0.328125q0.328125 -0.234375 0.5625 -0.578125q0.25 -0.34375 0.40625 -0.765625q0.140625 -0.375 0.203125 -0.828125q0.078125 -0.453125 0.078125 -0.96875zm-1.8125 -0.125l0 0.125q0 0.28125 -0.03125 0.53125q-0.015625 0.25 -0.0625 0.46875q-0.0625 0.296875 -0.203125 0.53125q-0.125 0.21875 -0.328125 0.359375q-0.140625 0.109375 -0.34375 0.171875q-0.1875 0.0625 -0.421875 0.0625q-0.28125 0 -0.5 -0.0625q-0.21875 -0.078125 -0.375 -0.203125q-0.140625 -0.09375 -0.25 -0.21875q-0.09375 -0.140625 -0.171875 -0.296875l0 -2.8125q0.0625 -0.125 0.125 -0.234375q0.078125 -0.109375 0.15625 -0.1875q0.1875 -0.171875 0.421875 -0.265625q0.25 -0.09375 0.578125 -0.09375q0.234375 0 0.421875 0.0625q0.203125 0.046875 0.34375 0.15625q0.234375 0.1875 0.34375 0.40625q0.109375 0.203125 0.1875 0.46875q0.0625 0.21875 0.078125 0.484375q0.03125 0.265625 0.03125 0.546875zm3.2794342 0l0 0.140625q0 0.765625 0.1875 1.421875q0.1875 0.65625 0.546875 1.125q0.34375 0.484375 0.859375 0.75q0.515625 0.265625 1.15625 0.265625q0.59375 0 1.03125 -0.21875q0.453125 -0.234375 0.78125 -0.640625l0.09375 0.734375l1.640625 0l0 -10.0l-1.8125 0l0 3.59375q-0.328125 -0.375 -0.75 -0.5625q-0.421875 -0.203125 -0.96875 -0.203125q-0.65625 0 -1.171875 0.265625q-0.515625 0.25 -0.875 0.734375q-0.359375 0.46875 -0.546875 1.140625q-0.171875 0.65625 -0.171875 1.453125zm1.796875 0.140625l0 -0.140625q0 -0.4375 0.078125 -0.828125q0.078125 -0.390625 0.25 -0.671875q0.171875 -0.296875 0.4375 -0.453125q0.28125 -0.171875 0.65625 -0.171875q0.46875 0 0.765625 0.203125q0.3125 0.203125 0.5 0.546875l0 2.859375q-0.1875 0.34375 -0.5 0.546875q-0.3125 0.203125 -0.78125 0.203125q-0.375 0 -0.640625 -0.15625q-0.265625 -0.171875 -0.4375 -0.453125q-0.171875 -0.28125 -0.25 -0.65625q-0.078125 -0.390625 -0.078125 -0.828125zm6.873184 -3.609375l0 1.484375l2.0 0l0 4.09375l-2.0 0l0 1.46875l5.734375 0l0 -1.46875l-1.90625 0l0 -5.578125l-3.828125 0zm1.875 -1.796875q0 0.203125 0.0625 0.390625q0.078125 0.171875 0.21875 0.296875q0.140625 0.125 0.328125 0.203125q0.1875 0.078125 0.421875 0.078125q0.484375 0 0.765625 -0.265625q0.28125 -0.28125 0.28125 -0.703125q0 -0.421875 -0.28125 -0.6875q-0.28125 -0.28125 -0.765625 -0.28125q-0.234375 0 -0.421875 0.078125q-0.1875 0.0625 -0.328125 0.1875q-0.140625 0.140625 -0.21875 0.328125q-0.0625 0.171875 -0.0625 0.375zm10.685684 1.671875q-0.703125 0 -1.3125 0.34375q-0.59375 0.34375 -1.015625 0.9375l-0.015625 -0.15625l-0.078125 -1.0l-1.671875 0l0 7.046875l1.796875 0l0 -4.234375q0.125 -0.296875 0.3125 -0.515625q0.1875 -0.21875 0.453125 -0.359375q0.234375 -0.125 0.515625 -0.1875q0.28125 -0.0625 0.625 -0.0625q0.34375 0 0.71875 0.046875q0.375 0.03125 0.734375 0.125l0.265625 -1.8125q-0.21875 -0.0625 -0.5625 -0.109375q-0.34375 -0.0625 -0.765625 -0.0625zm5.154434 7.984375l3.546875 -10.28125l-1.6875 0l-3.546875 10.28125l1.6875 0zm7.623184 -1.859375q0 0.5 0.328125 0.84375q0.34375 0.328125 0.921875 0.328125q0.578125 0 0.921875 -0.328125q0.34375 -0.34375 0.34375 -0.84375q0 -0.515625 -0.34375 -0.859375q-0.328125 -0.34375 -0.921875 -0.34375q-0.59375 0 -0.921875 0.359375q-0.328125 0.34375 -0.328125 0.84375zm7.998184 0q0 0.5 0.328125 0.84375q0.34375 0.328125 0.921875 0.328125q0.578125 0 0.921875 -0.328125q0.34375 -0.34375 0.34375 -0.84375q0 -0.515625 -0.34375 -0.859375q-0.328125 -0.34375 -0.921875 -0.34375q-0.59375 0 -0.921875 0.359375q-0.328125 0.34375 -0.328125 0.84375zm7.998184 0q0 0.5 0.328125 0.84375q0.34375 0.328125 0.921875 0.328125q0.578125 0 0.921875 -0.328125q0.34375 -0.34375 0.34375 -0.84375q0 -0.515625 -0.34375 -0.859375q-0.328125 -0.34375 -0.921875 -0.34375q-0.59375 0 -0.921875 0.359375q-0.328125 0.34375 -0.328125 0.84375z" fill-rule="nonzero"/><path fill="#000000" fill-opacity="0.0" d="m15.102363 200.24672l171.52757 0" fill-rule="evenodd"/><path stroke="#000000" stroke-width="1.0" stroke-linejoin="round" stroke-linecap="butt" d="m15.102363 200.24672l165.52757 0" fill-rule="evenodd"/><path fill="#000000" stroke="#000000" stroke-width="1.0" stroke-linecap="butt" d="m180.62993 201.89845l4.538086 -1.6517334l-4.538086 -1.6517334z" fill-rule="evenodd"/><path fill="#d9d9d9" d="m223.76903 99.656166l0 0c0 -8.975716 7.2762604 -16.251968 16.251968 -16.251968l0 0c4.3102875 0 8.444046 1.7122574 11.491882 4.7600937c3.0478363 3.0478363 4.7601013 7.181587 4.7601013 11.491875l0 0c0 8.975716 -7.2762604 16.251968 -16.251984 16.251968l0 0c-8.975708 0 -16.251968 -7.2762527 -16.251968 -16.251968z" fill-rule="evenodd"/><path stroke="#000000" stroke-width="1.0" stroke-linejoin="round" stroke-linecap="butt" d="m223.76903 99.656166l0 0c0 -8.975716 7.2762604 -16.251968 16.251968 -16.251968l0 0c4.3102875 0 8.444046 1.7122574 11.491882 4.7600937c3.0478363 3.0478363 4.7601013 7.181587 4.7601013 11.491875l0 0c0 8.975716 -7.2762604 16.251968 -16.251984 16.251968l0 0c-8.975708 0 -16.251968 -7.2762527 -16.251968 -16.251968z" fill-rule="evenodd"/><path fill="#6aa84f" d="m284.69028 51.656166l0 0c0 -8.975712 7.2762756 -16.251968 16.251984 -16.251968l0 0c4.310272 0 8.444031 1.7122574 11.491882 4.7600937c3.047821 3.0478363 4.760071 7.181587 4.760071 11.491875l0 0c0 8.975716 -7.276245 16.251968 -16.251953 16.251968l0 0c-8.975708 0 -16.251984 -7.2762527 -16.251984 -16.251968z" fill-rule="evenodd"/><path stroke="#000000" stroke-width="1.0" stroke-linejoin="round" stroke-linecap="butt" d="m284.69028 51.656166l0 0c0 -8.975712 7.2762756 -16.251968 16.251984 -16.251968l0 0c4.310272 0 8.444031 1.7122574 11.491882 4.7600937c3.047821 3.0478363 4.760071 7.181587 4.760071 11.491875l0 0c0 8.975716 -7.276245 16.251968 -16.251953 16.251968l0 0c-8.975708 0 -16.251984 -7.2762527 -16.251984 -16.251968z" fill-rule="evenodd"/><path fill="#4a86e8" d="m284.69028 147.82677l0 0c0 -8.975708 7.2762756 -16.251968 16.251984 -16.251968l0 0c4.310272 0 8.444031 1.712265 11.491882 4.7601013c3.047821 3.0478363 4.760071 7.1815796 4.760071 11.491867l0 0c0 8.975723 -7.276245 16.251968 -16.251953 16.251968l0 0c-8.975708 0 -16.251984 -7.276245 -16.251984 -16.251968z" fill-rule="evenodd"/><path stroke="#000000" stroke-width="1.0" stroke-linejoin="round" stroke-linecap="butt" d="m284.69028 147.82677l0 0c0 -8.975708 7.2762756 -16.251968 16.251984 -16.251968l0 0c4.310272 0 8.444031 1.712265 11.491882 4.7601013c3.047821 3.0478363 4.760071 7.1815796 4.760071 11.491867l0 0c0 8.975723 -7.276245 16.251968 -16.251953 16.251968l0 0c-8.975708 0 -16.251984 -7.276245 -16.251984 -16.251968z" fill-rule="evenodd"/><path fill="#4a86e8" d="m348.69028 123.485565l0 0c0 -8.975716 7.2762756 -16.251968 16.251984 -16.251968l0 0c4.310272 0 8.444031 1.7122574 11.491882 4.7600937c3.047821 3.0478287 4.760071 7.181587 4.760071 11.491875l0 0c0 8.975708 -7.276245 16.251968 -16.251953 16.251968l0 0c-8.975708 0 -16.251984 -7.2762604 -16.251984 -16.251968z" fill-rule="evenodd"/><path stroke="#000000" stroke-width="1.0" stroke-linejoin="round" stroke-linecap="butt" d="m348.69028 123.485565l0 0c0 -8.975716 7.2762756 -16.251968 16.251984 -16.251968l0 0c4.310272 0 8.444031 1.7122574 11.491882 4.7600937c3.047821 3.0478287 4.760071 7.181587 4.760071 11.491875l0 0c0 8.975708 -7.276245 16.251968 -16.251953 16.251968l0 0c-8.975708 0 -16.251984 -7.2762604 -16.251984 -16.251968z" fill-rule="evenodd"/><path fill="#6aa84f" d="m348.69028 27.485565l0 0c0 -8.975716 7.2762756 -16.251968 16.251984 -16.251968l0 0c4.310272 0 8.444031 1.7122564 11.491882 4.760092c3.047821 3.0478354 4.760071 7.1815863 4.760071 11.491878l0 0c0 8.975712 -7.276245 16.251968 -16.251953 16.251968l0 0c-8.975708 0 -16.251984 -7.2762566 -16.251984 -16.251968z" fill-rule="evenodd"/><path stroke="#000000" stroke-width="1.0" stroke-linejoin="round" stroke-linecap="butt" d="m348.69028 27.485565l0 0c0 -8.975716 7.2762756 -16.251968 16.251984 -16.251968l0 0c4.310272 0 8.444031 1.7122564 11.491882 4.760092c3.047821 3.0478354 4.760071 7.1815863 4.760071 11.491878l0 0c0 8.975712 -7.276245 16.251968 -16.251953 16.251968l0 0c-8.975708 0 -16.251984 -7.2762566 -16.251984 -16.251968z" fill-rule="evenodd"/><path fill="#6aa84f" d="m348.69028 75.485565l0 0c0 -8.975716 7.2762756 -16.251968 16.251984 -16.251968l0 0c4.310272 0 8.444031 1.7122536 11.491882 4.76009c3.047821 3.0478325 4.760071 7.181591 4.760071 11.4918785l0 0c0 8.975716 -7.276245 16.251968 -16.251953 16.251968l0 0c-8.975708 0 -16.251984 -7.2762527 -16.251984 -16.251968z" fill-rule="evenodd"/><path stroke="#000000" stroke-width="1.0" stroke-linejoin="round" stroke-linecap="butt" d="m348.69028 75.485565l0 0c0 -8.975716 7.2762756 -16.251968 16.251984 -16.251968l0 0c4.310272 0 8.444031 1.7122536 11.491882 4.76009c3.047821 3.0478325 4.760071 7.181591 4.760071 11.4918785l0 0c0 8.975716 -7.276245 16.251968 -16.251953 16.251968l0 0c-8.975708 0 -16.251984 -7.2762527 -16.251984 -16.251968z" fill-rule="evenodd"/><path fill="#4a86e8" d="m348.69028 171.48557l0 0c0 -8.975708 7.2762756 -16.251968 16.251984 -16.251968l0 0c4.310272 0 8.444031 1.7122498 11.491882 4.760086c3.047821 3.0478363 4.760071 7.181595 4.760071 11.491882l0 0c0 8.975708 -7.276245 16.251968 -16.251953 16.251968l0 0c-8.975708 0 -16.251984 -7.2762604 -16.251984 -16.251968z" fill-rule="evenodd"/><path stroke="#000000" stroke-width="1.0" stroke-linejoin="round" stroke-linecap="butt" d="m348.69028 171.48557l0 0c0 -8.975708 7.2762756 -16.251968 16.251984 -16.251968l0 0c4.310272 0 8.444031 1.7122498 11.491882 4.760086c3.047821 3.0478363 4.760071 7.181595 4.760071 11.491882l0 0c0 8.975708 -7.276245 16.251968 -16.251953 16.251968l0 0c-8.975708 0 -16.251984 -7.2762604 -16.251984 -16.251968z" fill-rule="evenodd"/><path fill="#000000" fill-opacity="0.0" d="m251.51288 111.14805l33.165344 36.69291" fill-rule="evenodd"/><path stroke="#000000" stroke-width="1.0" stroke-linejoin="round" stroke-linecap="butt" d="m251.51288 111.14805l33.165344 36.69291" fill-rule="evenodd"/><path fill="#000000" fill-opacity="0.0" d="m251.51288 88.16429l33.165344 -36.503937" fill-rule="evenodd"/><path stroke="#000000" stroke-width="1.0" stroke-linejoin="round" stroke-linecap="butt" d="m251.51288 88.16429l33.165344 -36.503937" fill-rule="evenodd"/><path fill="#000000" fill-opacity="0.0" d="m312.43414 40.16429l36.251953 -12.692913" fill-rule="evenodd"/><path stroke="#000000" stroke-width="1.0" stroke-linejoin="round" stroke-linecap="butt" d="m312.43414 40.16429l36.251953 -12.692913" fill-rule="evenodd"/><path fill="#000000" fill-opacity="0.0" d="m312.43414 63.148045l36.251953 12.346455" fill-rule="evenodd"/><path stroke="#000000" stroke-width="1.0" stroke-linejoin="round" stroke-linecap="butt" d="m312.43414 63.148045l36.251953 12.346455" fill-rule="evenodd"/><path fill="#000000" fill-opacity="0.0" d="m312.43414 136.3349l36.251953 -12.850403" fill-rule="evenodd"/><path stroke="#000000" stroke-width="1.0" stroke-linejoin="round" stroke-linecap="butt" d="m312.43414 136.3349l36.251953 -12.850403" fill-rule="evenodd"/><path fill="#000000" fill-opacity="0.0" d="m312.43414 159.31865l36.251953 12.157486" fill-rule="evenodd"/><path stroke="#000000" stroke-width="1.0" stroke-linejoin="round" stroke-linecap="butt" d="m312.43414 159.31865l36.251953 12.157486" fill-rule="evenodd"/><path fill="#000000" fill-opacity="0.0" d="m244.07611 6.32021l113.7323 0l0 16.15748l-113.7323 0z" fill-rule="evenodd"/><path fill="#6aa84f" d="m287.0718 21.5427l0.21875 -1.03125q-0.328125 0.015625 -0.53125 -0.171875q-0.203125 -0.171875 -0.328125 -0.46875q-0.109375 -0.28125 -0.15625 -0.65625q-0.046875 -0.359375 -0.046875 -0.703125l0 -1.0625q0 -0.78125 -0.375 -1.359375q-0.375 -0.59375 -1.1875 -0.90625q0.796875 -0.3125 1.171875 -0.90625q0.390625 -0.609375 0.390625 -1.390625l0 -1.046875q0 -0.359375 0.015625 -0.71875q0.015625 -0.359375 0.125 -0.65625q0.09375 -0.296875 0.296875 -0.46875q0.21875 -0.1875 0.625 -0.171875l-0.21875 -1.015625q-0.640625 0 -1.09375 0.25q-0.453125 0.234375 -0.734375 0.609375q-0.34375 0.4375 -0.5 1.03125q-0.15625 0.578125 -0.15625 1.140625l0 1.046875q0 0.890625 -0.40625 1.265625q-0.390625 0.375 -1.21875 0.375l0 1.296875q0.828125 0 1.21875 0.390625q0.40625 0.375 0.40625 1.234375l0 1.0625q0 0.515625 0.140625 1.046875q0.140625 0.53125 0.453125 0.984375q0.296875 0.4375 0.765625 0.71875q0.46875 0.28125 1.125 0.28125zm5.904419 -3.65625q-0.4375 0 -0.71875 -0.171875q-0.28125 -0.1875 -0.4375 -0.46875q-0.171875 -0.296875 -0.234375 -0.671875q-0.0625 -0.375 -0.0625 -0.796875l0 -0.1875q0 -0.40625 0.0625 -0.78125q0.0625 -0.375 0.234375 -0.671875q0.171875 -0.296875 0.4375 -0.46875q0.28125 -0.171875 0.71875 -0.171875q0.296875 0 0.53125 0.109375q0.25 0.09375 0.421875 0.25q0.1875 0.171875 0.265625 0.40625q0.09375 0.234375 0.09375 0.5l1.703125 0q0 -0.625 -0.21875 -1.125q-0.21875 -0.515625 -0.609375 -0.875q-0.40625 -0.34375 -0.96875 -0.53125q-0.546875 -0.203125 -1.203125 -0.203125q-0.8125 0 -1.421875 0.28125q-0.609375 0.28125 -1.03125 0.765625q-0.421875 0.46875 -0.625 1.125q-0.203125 0.640625 -0.203125 1.390625l0 0.1875q0 0.75 0.203125 1.40625q0.21875 0.640625 0.625 1.125q0.421875 0.46875 1.03125 0.75q0.625 0.28125 1.4375 0.28125q0.609375 0 1.15625 -0.1875q0.546875 -0.203125 0.953125 -0.53125q0.40625 -0.34375 0.640625 -0.8125q0.234375 -0.46875 0.234375 -1.015625l-1.703125 0q0 0.25 -0.109375 0.453125q-0.09375 0.203125 -0.265625 0.34375q-0.1875 0.140625 -0.4375 0.21875q-0.234375 0.078125 -0.5 0.078125zm6.0138245 -5.734375l-1.5625 0l0 7.046875l1.65625 0l0 -5.265625q0.03125 -0.09375 0.0625 -0.15625q0.046875 -0.078125 0.09375 -0.125q0.078125 -0.078125 0.15625 -0.109375q0.09375 -0.046875 0.21875 -0.046875q0.09375 0 0.1875 0.03125q0.09375 0.03125 0.171875 0.09375q0.0625 0.078125 0.09375 0.21875q0.046875 0.125 0.046875 0.328125l0 5.03125l1.59375 0l0 -5.1875q0 -0.078125 0 -0.125q0 -0.046875 0 -0.0625q0.03125 -0.078125 0.078125 -0.125q0.046875 -0.0625 0.109375 -0.109375q0.0625 -0.046875 0.140625 -0.0625q0.09375 -0.03125 0.1875 -0.03125q0.09375 0 0.1875 0.03125q0.109375 0.03125 0.171875 0.09375q0.078125 0.078125 0.109375 0.21875q0.046875 0.125 0.046875 0.328125l0 5.03125l1.640625 0l0 -5.03125q0 -0.578125 -0.109375 -0.984375q-0.109375 -0.40625 -0.3125 -0.671875q-0.203125 -0.25 -0.484375 -0.359375q-0.28125 -0.125 -0.59375 -0.125q-0.25 0 -0.46875 0.0625q-0.21875 0.0625 -0.390625 0.1875q-0.125 0.09375 -0.25 0.21875q-0.109375 0.125 -0.203125 0.28125q-0.0625 -0.171875 -0.140625 -0.296875q-0.078125 -0.125 -0.1875 -0.21875q-0.140625 -0.109375 -0.34375 -0.171875q-0.1875 -0.0625 -0.4375 -0.0625q-0.515625 0 -0.875 0.265625q-0.34375 0.265625 -0.546875 0.71875l-0.046875 -0.859375zm6.685669 3.46875l0 0.140625q0 0.765625 0.1875 1.421875q0.1875 0.65625 0.546875 1.125q0.34375 0.484375 0.859375 0.75q0.515625 0.265625 1.15625 0.265625q0.59375 0 1.03125 -0.21875q0.453125 -0.234375 0.78125 -0.640625l0.09375 0.734375l1.640625 0l0 -10.0l-1.8125 0l0 3.59375q-0.328125 -0.375 -0.75 -0.5625q-0.421875 -0.203125 -0.96875 -0.203125q-0.65625 0 -1.171875 0.265625q-0.515625 0.25 -0.875 0.734375q-0.359375 0.46875 -0.546875 1.140625q-0.171875 0.65625 -0.171875 1.453125zm1.796875 0.140625l0 -0.140625q0 -0.4375 0.078125 -0.828125q0.078125 -0.390625 0.25 -0.671875q0.171875 -0.296875 0.4375 -0.453125q0.28125 -0.171875 0.65625 -0.171875q0.46875 0 0.765625 0.203125q0.3125 0.203125 0.5 0.546875l0 2.859375q-0.1875 0.34375 -0.5 0.546875q-0.3125 0.203125 -0.78125 0.203125q-0.375 0 -0.640625 -0.15625q-0.265625 -0.171875 -0.4375 -0.453125q-0.171875 -0.28125 -0.25 -0.65625q-0.078125 -0.390625 -0.078125 -0.828125zm7.6231995 4.75l0.21875 1.03125q0.65625 0 1.125 -0.28125q0.46875 -0.265625 0.765625 -0.71875q0.296875 -0.4375 0.4375 -0.984375q0.15625 -0.546875 0.15625 -1.046875l0 -1.0625q0 -0.3125 0.046875 -0.546875q0.046875 -0.25 0.140625 -0.4375q0.1875 -0.328125 0.546875 -0.484375q0.359375 -0.15625 0.890625 -0.15625l0 -1.296875q-0.484375 0 -0.828125 -0.125q-0.328125 -0.125 -0.515625 -0.390625q-0.15625 -0.1875 -0.21875 -0.46875q-0.0625 -0.28125 -0.0625 -0.65625l0 -1.046875q0 -0.5 -0.125 -1.03125q-0.125 -0.53125 -0.40625 -0.96875q-0.296875 -0.46875 -0.78125 -0.75q-0.46875 -0.28125 -1.171875 -0.28125l-0.21875 1.015625q0.40625 -0.015625 0.609375 0.171875q0.21875 0.171875 0.3125 0.46875q0.109375 0.296875 0.125 0.65625q0.015625 0.359375 0.015625 0.71875l0 1.046875q0 0.453125 0.125 0.859375q0.125 0.390625 0.375 0.71875q0.171875 0.21875 0.40625 0.40625q0.25 0.1875 0.5625 0.3125q-0.375 0.15625 -0.65625 0.390625q-0.28125 0.234375 -0.453125 0.53125q-0.1875 0.28125 -0.28125 0.625q-0.078125 0.34375 -0.078125 0.71875l0 1.0625q0 0.34375 -0.046875 0.703125q-0.046875 0.375 -0.171875 0.65625q-0.109375 0.296875 -0.3125 0.46875q-0.203125 0.1875 -0.53125 0.171875z" fill-rule="nonzero"/><path fill="#000000" fill-opacity="0.0" d="m300.94226 22.47769l0 0" fill-rule="evenodd"/><path stroke="#000000" stroke-width="1.0" stroke-linejoin="round" stroke-linecap="butt" d="m300.94226 22.47769l0 0" fill-rule="evenodd"/><path fill="#000000" fill-opacity="0.0" d="m300.94226 22.47769l0 12.913385" fill-rule="evenodd"/><path stroke="#6aa84f" stroke-width="1.0" stroke-linejoin="round" stroke-linecap="butt" d="m300.94226 22.47769l0 9.486301" fill-rule="evenodd"/><path fill="#6aa84f" stroke="#6aa84f" stroke-width="1.0" stroke-linecap="butt" d="m300.94226 31.96399l-1.1245728 -1.1245842l1.1245728 3.0897675l1.1245728 -3.0897675z" fill-rule="evenodd"/><path fill="#000000" fill-opacity="0.0" d="m156.07611 129.91602l61.95276 0l0 35.55905l-61.95276 0z" fill-rule="evenodd"/><path fill="#d9d9d9" d="m177.80522 150.66913q0 0.5 0.328125 0.84375q0.34375 0.328125 0.921875 0.328125q0.578125 0 0.921875 -0.328125q0.34375 -0.34375 0.34375 -0.84375q0 -0.515625 -0.34375 -0.859375q-0.328125 -0.34375 -0.921875 -0.34375q-0.59375 0 -0.921875 0.359375q-0.328125 0.34375 -0.328125 0.84375zm7.998184 0q0 0.5 0.328125 0.84375q0.34375 0.328125 0.921875 0.328125q0.578125 0 0.921875 -0.328125q0.34375 -0.34375 0.34375 -0.84375q0 -0.515625 -0.34375 -0.859375q-0.328125 -0.34375 -0.921875 -0.34375q-0.59375 0 -0.921875 0.359375q-0.328125 0.34375 -0.328125 0.84375zm7.998184 0q0 0.5 0.328125 0.84375q0.34375 0.328125 0.921875 0.328125q0.578125 0 0.921875 -0.328125q0.34375 -0.34375 0.34375 -0.84375q0 -0.515625 -0.34375 -0.859375q-0.328125 -0.34375 -0.921875 -0.34375q-0.59375 0 -0.921875 0.359375q-0.328125 0.34375 -0.328125 0.84375z" fill-rule="nonzero"/><path fill="#000000" fill-opacity="0.0" d="m364.0761 33.91601l61.95276 0l0 35.559055l-61.95276 0z" fill-rule="evenodd"/><path fill="#6aa84f" d="m385.8052 54.669136q0 0.5 0.328125 0.84375q0.34375 0.328125 0.921875 0.328125q0.578125 0 0.921875 -0.328125q0.34375 -0.34375 0.34375 -0.84375q0 -0.515625 -0.34375 -0.859375q-0.328125 -0.34375 -0.921875 -0.34375q-0.59375 0 -0.921875 0.359375q-0.328125 0.34375 -0.328125 0.84375zm7.9981995 0q0 0.5 0.328125 0.84375q0.34375 0.328125 0.921875 0.328125q0.578125 0 0.921875 -0.328125q0.34375 -0.34375 0.34375 -0.84375q0 -0.515625 -0.34375 -0.859375q-0.328125 -0.34375 -0.921875 -0.34375q-0.59375 0 -0.921875 0.359375q-0.328125 0.34375 -0.328125 0.84375zm7.998169 0q0 0.5 0.328125 0.84375q0.34375 0.328125 0.921875 0.328125q0.578125 0 0.921875 -0.328125q0.34375 -0.34375 0.34375 -0.84375q0 -0.515625 -0.34375 -0.859375q-0.328125 -0.34375 -0.921875 -0.34375q-0.59375 0 -0.921875 0.359375q-0.328125 0.34375 -0.328125 0.84375z" fill-rule="nonzero"/><path fill="#000000" fill-opacity="0.0" d="m244.07611 102.32021l113.7323 0l0 16.157478l-113.7323 0z" fill-rule="evenodd"/><path fill="#4a86e8" d="m287.0718 117.5427l0.21875 -1.03125q-0.328125 0.015625 -0.53125 -0.171875q-0.203125 -0.171875 -0.328125 -0.46875q-0.109375 -0.28125 -0.15625 -0.65625q-0.046875 -0.359375 -0.046875 -0.703125l0 -1.0625q0 -0.78125 -0.375 -1.359375q-0.375 -0.59375 -1.1875 -0.90625q0.796875 -0.3125 1.171875 -0.90625q0.390625 -0.609375 0.390625 -1.390625l0 -1.046875q0 -0.359375 0.015625 -0.71875q0.015625 -0.359375 0.125 -0.65625q0.09375 -0.296875 0.296875 -0.46875q0.21875 -0.1875 0.625 -0.171875l-0.21875 -1.015625q-0.640625 0 -1.09375 0.25q-0.453125 0.234375 -0.734375 0.609375q-0.34375 0.4375 -0.5 1.03125q-0.15625 0.578125 -0.15625 1.140625l0 1.046875q0 0.890625 -0.40625 1.265625q-0.390625 0.375 -1.21875 0.375l0 1.296875q0.828125 0 1.21875 0.390625q0.40625 0.375 0.40625 1.234375l0 1.0625q0 0.515625 0.140625 1.046875q0.140625 0.53125 0.453125 0.984375q0.296875 0.4375 0.765625 0.71875q0.46875 0.28125 1.125 0.28125zm5.904419 -3.65625q-0.4375 0 -0.71875 -0.171875q-0.28125 -0.1875 -0.4375 -0.46875q-0.171875 -0.296875 -0.234375 -0.671875q-0.0625 -0.375 -0.0625 -0.796875l0 -0.1875q0 -0.40625 0.0625 -0.78125q0.0625 -0.375 0.234375 -0.671875q0.171875 -0.296875 0.4375 -0.46875q0.28125 -0.171875 0.71875 -0.171875q0.296875 0 0.53125 0.109375q0.25 0.09375 0.421875 0.25q0.1875 0.171875 0.265625 0.40625q0.09375 0.234375 0.09375 0.5l1.703125 0q0 -0.625 -0.21875 -1.125q-0.21875 -0.515625 -0.609375 -0.875q-0.40625 -0.34375 -0.96875 -0.53125q-0.546875 -0.203125 -1.203125 -0.203125q-0.8125 0 -1.421875 0.28125q-0.609375 0.28125 -1.03125 0.765625q-0.421875 0.46875 -0.625 1.125q-0.203125 0.640625 -0.203125 1.390625l0 0.1875q0 0.75 0.203125 1.40625q0.21875 0.640625 0.625 1.125q0.421875 0.46875 1.03125 0.75q0.625 0.28125 1.4375 0.28125q0.609375 0 1.15625 -0.1875q0.546875 -0.203125 0.953125 -0.53125q0.40625 -0.34375 0.640625 -0.8125q0.234375 -0.46875 0.234375 -1.015625l-1.703125 0q0 0.25 -0.109375 0.453125q-0.09375 0.203125 -0.265625 0.34375q-0.1875 0.140625 -0.4375 0.21875q-0.234375 0.078125 -0.5 0.078125zm6.0138245 -5.734375l-1.5625 0l0 7.046875l1.65625 0l0 -5.265625q0.03125 -0.09375 0.0625 -0.15625q0.046875 -0.078125 0.09375 -0.125q0.078125 -0.078125 0.15625 -0.109375q0.09375 -0.046875 0.21875 -0.046875q0.09375 0 0.1875 0.03125q0.09375 0.03125 0.171875 0.09375q0.0625 0.078125 0.09375 0.21875q0.046875 0.125 0.046875 0.328125l0 5.03125l1.59375 0l0 -5.1875q0 -0.078125 0 -0.125q0 -0.046875 0 -0.0625q0.03125 -0.078125 0.078125 -0.125q0.046875 -0.0625 0.109375 -0.109375q0.0625 -0.046875 0.140625 -0.0625q0.09375 -0.03125 0.1875 -0.03125q0.09375 0 0.1875 0.03125q0.109375 0.03125 0.171875 0.09375q0.078125 0.078125 0.109375 0.21875q0.046875 0.125 0.046875 0.328125l0 5.03125l1.640625 0l0 -5.03125q0 -0.578125 -0.109375 -0.984375q-0.109375 -0.40625 -0.3125 -0.671875q-0.203125 -0.25 -0.484375 -0.359375q-0.28125 -0.125 -0.59375 -0.125q-0.25 0 -0.46875 0.0625q-0.21875 0.0625 -0.390625 0.1875q-0.125 0.09375 -0.25 0.21875q-0.109375 0.125 -0.203125 0.28125q-0.0625 -0.171875 -0.140625 -0.296875q-0.078125 -0.125 -0.1875 -0.21875q-0.140625 -0.109375 -0.34375 -0.171875q-0.1875 -0.0625 -0.4375 -0.0625q-0.515625 0 -0.875 0.265625q-0.34375 0.265625 -0.546875 0.71875l-0.046875 -0.859375zm6.685669 3.46875l0 0.140625q0 0.765625 0.1875 1.421875q0.1875 0.65625 0.546875 1.125q0.34375 0.484375 0.859375 0.75q0.515625 0.265625 1.15625 0.265625q0.59375 0 1.03125 -0.21875q0.453125 -0.234375 0.78125 -0.640625l0.09375 0.734375l1.640625 0l0 -10.0l-1.8125 0l0 3.59375q-0.328125 -0.375 -0.75 -0.5625q-0.421875 -0.203125 -0.96875 -0.203125q-0.65625 0 -1.171875 0.265625q-0.515625 0.25 -0.875 0.734375q-0.359375 0.46875 -0.546875 1.140625q-0.171875 0.65625 -0.171875 1.453125zm1.796875 0.140625l0 -0.140625q0 -0.4375 0.078125 -0.828125q0.078125 -0.390625 0.25 -0.671875q0.171875 -0.296875 0.4375 -0.453125q0.28125 -0.171875 0.65625 -0.171875q0.46875 0 0.765625 0.203125q0.3125 0.203125 0.5 0.546875l0 2.859375q-0.1875 0.34375 -0.5 0.546875q-0.3125 0.203125 -0.78125 0.203125q-0.375 0 -0.640625 -0.15625q-0.265625 -0.171875 -0.4375 -0.453125q-0.171875 -0.28125 -0.25 -0.65625q-0.078125 -0.390625 -0.078125 -0.828125zm7.6231995 4.75l0.21875 1.03125q0.65625 0 1.125 -0.28125q0.46875 -0.265625 0.765625 -0.71875q0.296875 -0.4375 0.4375 -0.984375q0.15625 -0.546875 0.15625 -1.046875l0 -1.0625q0 -0.3125 0.046875 -0.546875q0.046875 -0.25 0.140625 -0.4375q0.1875 -0.328125 0.546875 -0.484375q0.359375 -0.15625 0.890625 -0.15625l0 -1.296875q-0.484375 0 -0.828125 -0.125q-0.328125 -0.125 -0.515625 -0.390625q-0.15625 -0.1875 -0.21875 -0.46875q-0.0625 -0.28125 -0.0625 -0.65625l0 -1.046875q0 -0.5 -0.125 -1.03125q-0.125 -0.53125 -0.40625 -0.96875q-0.296875 -0.46875 -0.78125 -0.75q-0.46875 -0.28125 -1.171875 -0.28125l-0.21875 1.015625q0.40625 -0.015625 0.609375 0.171875q0.21875 0.171875 0.3125 0.46875q0.109375 0.296875 0.125 0.65625q0.015625 0.359375 0.015625 0.71875l0 1.046875q0 0.453125 0.125 0.859375q0.125 0.390625 0.375 0.71875q0.171875 0.21875 0.40625 0.40625q0.25 0.1875 0.5625 0.3125q-0.375 0.15625 -0.65625 0.390625q-0.28125 0.234375 -0.453125 0.53125q-0.1875 0.28125 -0.28125 0.625q-0.078125 0.34375 -0.078125 0.71875l0 1.0625q0 0.34375 -0.046875 0.703125q-0.046875 0.375 -0.171875 0.65625q-0.109375 0.296875 -0.3125 0.46875q-0.203125 0.1875 -0.53125 0.171875z" fill-rule="nonzero"/><path fill="#000000" fill-opacity="0.0" d="m300.94226 118.47769l0 13.102356" fill-rule="evenodd"/><path stroke="#4a86e8" stroke-width="1.0" stroke-linejoin="round" stroke-linecap="butt" d="m300.94226 118.47769l0 9.675278" fill-rule="evenodd"/><path fill="#4a86e8" stroke="#4a86e8" stroke-width="1.0" stroke-linecap="butt" d="m300.94226 128.15297l-1.1245728 -1.124588l1.1245728 3.0897675l1.1245728 -3.0897675z" fill-rule="evenodd"/><path fill="#000000" fill-opacity="0.0" d="m364.0761 129.91602l61.95276 0l0 35.55905l-61.95276 0z" fill-rule="evenodd"/><path fill="#4a86e8" d="m385.8052 150.66913q0 0.5 0.328125 0.84375q0.34375 0.328125 0.921875 0.328125q0.578125 0 0.921875 -0.328125q0.34375 -0.34375 0.34375 -0.84375q0 -0.515625 -0.34375 -0.859375q-0.328125 -0.34375 -0.921875 -0.34375q-0.59375 0 -0.921875 0.359375q-0.328125 0.34375 -0.328125 0.84375zm7.9981995 0q0 0.5 0.328125 0.84375q0.34375 0.328125 0.921875 0.328125q0.578125 0 0.921875 -0.328125q0.34375 -0.34375 0.34375 -0.84375q0 -0.515625 -0.34375 -0.859375q-0.328125 -0.34375 -0.921875 -0.34375q-0.59375 0 -0.921875 0.359375q-0.328125 0.34375 -0.328125 0.84375zm7.998169 0q0 0.5 0.328125 0.84375q0.34375 0.328125 0.921875 0.328125q0.578125 0 0.921875 -0.328125q0.34375 -0.34375 0.34375 -0.84375q0 -0.515625 -0.34375 -0.859375q-0.328125 -0.34375 -0.921875 -0.34375q-0.59375 0 -0.921875 0.359375q-0.328125 0.34375 -0.328125 0.84375z" fill-rule="nonzero"/><path fill="#4a86e8" d="m431.76904 99.656166l0 0c0 -8.975716 7.276245 -16.251968 16.251953 -16.251968l0 0c4.3103027 0 8.444031 1.7122574 11.491882 4.7600937c3.047821 3.0478363 4.7601013 7.181587 4.7601013 11.491875l0 0c0 8.975716 -7.2762756 16.251968 -16.251984 16.251968l0 0c-8.975708 0 -16.251953 -7.2762527 -16.251953 -16.251968z" fill-rule="evenodd"/><path stroke="#000000" stroke-width="1.0" stroke-linejoin="round" stroke-linecap="butt" d="m431.76904 99.656166l0 0c0 -8.975716 7.276245 -16.251968 16.251953 -16.251968l0 0c4.3103027 0 8.444031 1.7122574 11.491882 4.7600937c3.047821 3.0478363 4.7601013 7.181587 4.7601013 11.491875l0 0c0 8.975716 -7.2762756 16.251968 -16.251984 16.251968l0 0c-8.975708 0 -16.251953 -7.2762527 -16.251953 -16.251968z" fill-rule="evenodd"/><path fill="#6aa84f" d="m492.69028 51.656166l0 0c0 -8.975712 7.2762756 -16.251968 16.251984 -16.251968l0 0c4.3103027 0 8.444031 1.7122574 11.491882 4.7600937c3.0478516 3.0478363 4.760071 7.181587 4.760071 11.491875l0 0c0 8.975716 -7.276245 16.251968 -16.251953 16.251968l0 0c-8.975708 0 -16.251984 -7.2762527 -16.251984 -16.251968z" fill-rule="evenodd"/><path stroke="#000000" stroke-width="1.0" stroke-linejoin="round" stroke-linecap="butt" d="m492.69028 51.656166l0 0c0 -8.975712 7.2762756 -16.251968 16.251984 -16.251968l0 0c4.3103027 0 8.444031 1.7122574 11.491882 4.7600937c3.0478516 3.0478363 4.760071 7.181587 4.760071 11.491875l0 0c0 8.975716 -7.276245 16.251968 -16.251953 16.251968l0 0c-8.975708 0 -16.251984 -7.2762527 -16.251984 -16.251968z" fill-rule="evenodd"/><path fill="#4a86e8" d="m492.69028 147.82677l0 0c0 -8.975708 7.2762756 -16.251968 16.251984 -16.251968l0 0c4.3103027 0 8.444031 1.712265 11.491882 4.7601013c3.0478516 3.0478363 4.760071 7.1815796 4.760071 11.491867l0 0c0 8.975723 -7.276245 16.251968 -16.251953 16.251968l0 0c-8.975708 0 -16.251984 -7.276245 -16.251984 -16.251968z" fill-rule="evenodd"/><path stroke="#000000" stroke-width="1.0" stroke-linejoin="round" stroke-linecap="butt" d="m492.69028 147.82677l0 0c0 -8.975708 7.2762756 -16.251968 16.251984 -16.251968l0 0c4.3103027 0 8.444031 1.712265 11.491882 4.7601013c3.0478516 3.0478363 4.760071 7.1815796 4.760071 11.491867l0 0c0 8.975723 -7.276245 16.251968 -16.251953 16.251968l0 0c-8.975708 0 -16.251984 -7.276245 -16.251984 -16.251968z" fill-rule="evenodd"/><path fill="#4a86e8" d="m556.6903 123.485565l0 0c0 -8.975716 7.276245 -16.251968 16.251953 -16.251968l0 0c4.3103027 0 8.444031 1.7122574 11.491882 4.7600937c3.0478516 3.0478287 4.760071 7.181587 4.760071 11.491875l0 0c0 8.975708 -7.276245 16.251968 -16.251953 16.251968l0 0c-8.975708 0 -16.251953 -7.2762604 -16.251953 -16.251968z" fill-rule="evenodd"/><path stroke="#000000" stroke-width="1.0" stroke-linejoin="round" stroke-linecap="butt" d="m556.6903 123.485565l0 0c0 -8.975716 7.276245 -16.251968 16.251953 -16.251968l0 0c4.3103027 0 8.444031 1.7122574 11.491882 4.7600937c3.0478516 3.0478287 4.760071 7.181587 4.760071 11.491875l0 0c0 8.975708 -7.276245 16.251968 -16.251953 16.251968l0 0c-8.975708 0 -16.251953 -7.2762604 -16.251953 -16.251968z" fill-rule="evenodd"/><path fill="#6aa84f" d="m556.6903 27.485565l0 0c0 -8.975716 7.276245 -16.251968 16.251953 -16.251968l0 0c4.3103027 0 8.444031 1.7122564 11.491882 4.760092c3.0478516 3.0478354 4.760071 7.1815863 4.760071 11.491878l0 0c0 8.975712 -7.276245 16.251968 -16.251953 16.251968l0 0c-8.975708 0 -16.251953 -7.2762566 -16.251953 -16.251968z" fill-rule="evenodd"/><path stroke="#000000" stroke-width="1.0" stroke-linejoin="round" stroke-linecap="butt" d="m556.6903 27.485565l0 0c0 -8.975716 7.276245 -16.251968 16.251953 -16.251968l0 0c4.3103027 0 8.444031 1.7122564 11.491882 4.760092c3.0478516 3.0478354 4.760071 7.1815863 4.760071 11.491878l0 0c0 8.975712 -7.276245 16.251968 -16.251953 16.251968l0 0c-8.975708 0 -16.251953 -7.2762566 -16.251953 -16.251968z" fill-rule="evenodd"/><path fill="#6aa84f" d="m556.6903 75.485565l0 0c0 -8.975716 7.276245 -16.251968 16.251953 -16.251968l0 0c4.3103027 0 8.444031 1.7122536 11.491882 4.76009c3.0478516 3.0478325 4.760071 7.181591 4.760071 11.4918785l0 0c0 8.975716 -7.276245 16.251968 -16.251953 16.251968l0 0c-8.975708 0 -16.251953 -7.2762527 -16.251953 -16.251968z" fill-rule="evenodd"/><path stroke="#000000" stroke-width="1.0" stroke-linejoin="round" stroke-linecap="butt" d="m556.6903 75.485565l0 0c0 -8.975716 7.276245 -16.251968 16.251953 -16.251968l0 0c4.3103027 0 8.444031 1.7122536 11.491882 4.76009c3.0478516 3.0478325 4.760071 7.181591 4.760071 11.4918785l0 0c0 8.975716 -7.276245 16.251968 -16.251953 16.251968l0 0c-8.975708 0 -16.251953 -7.2762527 -16.251953 -16.251968z" fill-rule="evenodd"/><path fill="#4a86e8" d="m556.6903 171.48557l0 0c0 -8.975708 7.276245 -16.251968 16.251953 -16.251968l0 0c4.3103027 0 8.444031 1.7122498 11.491882 4.760086c3.0478516 3.0478363 4.760071 7.181595 4.760071 11.491882l0 0c0 8.975708 -7.276245 16.251968 -16.251953 16.251968l0 0c-8.975708 0 -16.251953 -7.2762604 -16.251953 -16.251968z" fill-rule="evenodd"/><path stroke="#000000" stroke-width="1.0" stroke-linejoin="round" stroke-linecap="butt" d="m556.6903 171.48557l0 0c0 -8.975708 7.276245 -16.251968 16.251953 -16.251968l0 0c4.3103027 0 8.444031 1.7122498 11.491882 4.760086c3.0478516 3.0478363 4.760071 7.181595 4.760071 11.491882l0 0c0 8.975708 -7.276245 16.251968 -16.251953 16.251968l0 0c-8.975708 0 -16.251953 -7.2762604 -16.251953 -16.251968z" fill-rule="evenodd"/><path fill="#000000" fill-opacity="0.0" d="m459.51288 111.14805l33.165344 36.69291" fill-rule="evenodd"/><path stroke="#000000" stroke-width="1.0" stroke-linejoin="round" stroke-linecap="butt" d="m459.51288 111.14805l33.165344 36.69291" fill-rule="evenodd"/><path fill="#000000" fill-opacity="0.0" d="m459.51288 88.16429l33.165344 -36.503937" fill-rule="evenodd"/><path stroke="#000000" stroke-width="1.0" stroke-linejoin="round" stroke-linecap="butt" d="m459.51288 88.16429l33.165344 -36.503937" fill-rule="evenodd"/><path fill="#000000" fill-opacity="0.0" d="m520.43414 40.16429l36.251953 -12.692913" fill-rule="evenodd"/><path stroke="#000000" stroke-width="1.0" stroke-linejoin="round" stroke-linecap="butt" d="m520.43414 40.16429l36.251953 -12.692913" fill-rule="evenodd"/><path fill="#000000" fill-opacity="0.0" d="m520.43414 63.148045l36.251953 12.346455" fill-rule="evenodd"/><path stroke="#000000" stroke-width="1.0" stroke-linejoin="round" stroke-linecap="butt" d="m520.43414 63.148045l36.251953 12.346455" fill-rule="evenodd"/><path fill="#000000" fill-opacity="0.0" d="m520.43414 136.3349l36.251953 -12.850403" fill-rule="evenodd"/><path stroke="#000000" stroke-width="1.0" stroke-linejoin="round" stroke-linecap="butt" d="m520.43414 136.3349l36.251953 -12.850403" fill-rule="evenodd"/><path fill="#000000" fill-opacity="0.0" d="m520.43414 159.31865l36.251953 12.157486" fill-rule="evenodd"/><path stroke="#000000" stroke-width="1.0" stroke-linejoin="round" stroke-linecap="butt" d="m520.43414 159.31865l36.251953 12.157486" fill-rule="evenodd"/><path fill="#000000" fill-opacity="0.0" d="m452.0761 6.32021l113.7323 0l0 16.15748l-113.7323 0z" fill-rule="evenodd"/><path fill="#6aa84f" d="m495.0718 21.5427l0.21875 -1.03125q-0.328125 0.015625 -0.53125 -0.171875q-0.203125 -0.171875 -0.328125 -0.46875q-0.109375 -0.28125 -0.15625 -0.65625q-0.046875 -0.359375 -0.046875 -0.703125l0 -1.0625q0 -0.78125 -0.375 -1.359375q-0.375 -0.59375 -1.1875 -0.90625q0.796875 -0.3125 1.171875 -0.90625q0.390625 -0.609375 0.390625 -1.390625l0 -1.046875q0 -0.359375 0.015625 -0.71875q0.015625 -0.359375 0.125 -0.65625q0.09375 -0.296875 0.296875 -0.46875q0.21875 -0.1875 0.625 -0.171875l-0.21875 -1.015625q-0.640625 0 -1.09375 0.25q-0.453125 0.234375 -0.734375 0.609375q-0.34375 0.4375 -0.5 1.03125q-0.15625 0.578125 -0.15625 1.140625l0 1.046875q0 0.890625 -0.40625 1.265625q-0.390625 0.375 -1.21875 0.375l0 1.296875q0.828125 0 1.21875 0.390625q0.40625 0.375 0.40625 1.234375l0 1.0625q0 0.515625 0.140625 1.046875q0.140625 0.53125 0.453125 0.984375q0.296875 0.4375 0.765625 0.71875q0.46875 0.28125 1.125 0.28125zm5.904419 -3.65625q-0.4375 0 -0.71875 -0.171875q-0.28125 -0.1875 -0.4375 -0.46875q-0.171875 -0.296875 -0.234375 -0.671875q-0.0625 -0.375 -0.0625 -0.796875l0 -0.1875q0 -0.40625 0.0625 -0.78125q0.0625 -0.375 0.234375 -0.671875q0.171875 -0.296875 0.4375 -0.46875q0.28125 -0.171875 0.71875 -0.171875q0.296875 0 0.53125 0.109375q0.25 0.09375 0.421875 0.25q0.1875 0.171875 0.265625 0.40625q0.09375 0.234375 0.09375 0.5l1.703125 0q0 -0.625 -0.21875 -1.125q-0.21875 -0.515625 -0.609375 -0.875q-0.40625 -0.34375 -0.96875 -0.53125q-0.546875 -0.203125 -1.203125 -0.203125q-0.8125 0 -1.421875 0.28125q-0.609375 0.28125 -1.03125 0.765625q-0.421875 0.46875 -0.625 1.125q-0.203125 0.640625 -0.203125 1.390625l0 0.1875q0 0.75 0.203125 1.40625q0.21875 0.640625 0.625 1.125q0.421875 0.46875 1.03125 0.75q0.625 0.28125 1.4375 0.28125q0.609375 0 1.15625 -0.1875q0.546875 -0.203125 0.953125 -0.53125q0.40625 -0.34375 0.640625 -0.8125q0.234375 -0.46875 0.234375 -1.015625l-1.703125 0q0 0.25 -0.109375 0.453125q-0.09375 0.203125 -0.265625 0.34375q-0.1875 0.140625 -0.4375 0.21875q-0.234375 0.078125 -0.5 0.078125zm6.0138245 -5.734375l-1.5625 0l0 7.046875l1.65625 0l0 -5.265625q0.03125 -0.09375 0.0625 -0.15625q0.046875 -0.078125 0.09375 -0.125q0.078125 -0.078125 0.15625 -0.109375q0.09375 -0.046875 0.21875 -0.046875q0.09375 0 0.1875 0.03125q0.09375 0.03125 0.171875 0.09375q0.0625 0.078125 0.09375 0.21875q0.046875 0.125 0.046875 0.328125l0 5.03125l1.59375 0l0 -5.1875q0 -0.078125 0 -0.125q0 -0.046875 0 -0.0625q0.03125 -0.078125 0.078125 -0.125q0.046875 -0.0625 0.109375 -0.109375q0.0625 -0.046875 0.140625 -0.0625q0.09375 -0.03125 0.1875 -0.03125q0.09375 0 0.1875 0.03125q0.109375 0.03125 0.171875 0.09375q0.078125 0.078125 0.109375 0.21875q0.046875 0.125 0.046875 0.328125l0 5.03125l1.640625 0l0 -5.03125q0 -0.578125 -0.109375 -0.984375q-0.109375 -0.40625 -0.3125 -0.671875q-0.203125 -0.25 -0.484375 -0.359375q-0.28125 -0.125 -0.59375 -0.125q-0.25 0 -0.46875 0.0625q-0.21875 0.0625 -0.390625 0.1875q-0.125 0.09375 -0.25 0.21875q-0.109375 0.125 -0.203125 0.28125q-0.0625 -0.171875 -0.140625 -0.296875q-0.078125 -0.125 -0.1875 -0.21875q-0.140625 -0.109375 -0.34375 -0.171875q-0.1875 -0.0625 -0.4375 -0.0625q-0.515625 0 -0.875 0.265625q-0.34375 0.265625 -0.546875 0.71875l-0.046875 -0.859375zm6.685669 3.46875l0 0.140625q0 0.765625 0.1875 1.421875q0.1875 0.65625 0.546875 1.125q0.34375 0.484375 0.859375 0.75q0.515625 0.265625 1.15625 0.265625q0.59375 0 1.03125 -0.21875q0.453125 -0.234375 0.78125 -0.640625l0.09375 0.734375l1.640625 0l0 -10.0l-1.8125 0l0 3.59375q-0.328125 -0.375 -0.75 -0.5625q-0.421875 -0.203125 -0.96875 -0.203125q-0.65625 0 -1.171875 0.265625q-0.515625 0.25 -0.875 0.734375q-0.359375 0.46875 -0.546875 1.140625q-0.171875 0.65625 -0.171875 1.453125zm1.796875 0.140625l0 -0.140625q0 -0.4375 0.078125 -0.828125q0.078125 -0.390625 0.25 -0.671875q0.171875 -0.296875 0.4375 -0.453125q0.28125 -0.171875 0.65625 -0.171875q0.46875 0 0.765625 0.203125q0.3125 0.203125 0.5 0.546875l0 2.859375q-0.1875 0.34375 -0.5 0.546875q-0.3125 0.203125 -0.78125 0.203125q-0.375 0 -0.640625 -0.15625q-0.265625 -0.171875 -0.4375 -0.453125q-0.171875 -0.28125 -0.25 -0.65625q-0.078125 -0.390625 -0.078125 -0.828125zm7.623169 4.75l0.21875 1.03125q0.65625 0 1.125 -0.28125q0.46875 -0.265625 0.765625 -0.71875q0.296875 -0.4375 0.4375 -0.984375q0.15625 -0.546875 0.15625 -1.046875l0 -1.0625q0 -0.3125 0.046875 -0.546875q0.046875 -0.25 0.140625 -0.4375q0.1875 -0.328125 0.546875 -0.484375q0.359375 -0.15625 0.890625 -0.15625l0 -1.296875q-0.484375 0 -0.828125 -0.125q-0.328125 -0.125 -0.515625 -0.390625q-0.15625 -0.1875 -0.21875 -0.46875q-0.0625 -0.28125 -0.0625 -0.65625l0 -1.046875q0 -0.5 -0.125 -1.03125q-0.125 -0.53125 -0.40625 -0.96875q-0.296875 -0.46875 -0.78125 -0.75q-0.46875 -0.28125 -1.171875 -0.28125l-0.21875 1.015625q0.40625 -0.015625 0.609375 0.171875q0.21875 0.171875 0.3125 0.46875q0.109375 0.296875 0.125 0.65625q0.015625 0.359375 0.015625 0.71875l0 1.046875q0 0.453125 0.125 0.859375q0.125 0.390625 0.375 0.71875q0.171875 0.21875 0.40625 0.40625q0.25 0.1875 0.5625 0.3125q-0.375 0.15625 -0.65625 0.390625q-0.28125 0.234375 -0.453125 0.53125q-0.1875 0.28125 -0.28125 0.625q-0.078125 0.34375 -0.078125 0.71875l0 1.0625q0 0.34375 -0.046875 0.703125q-0.046875 0.375 -0.171875 0.65625q-0.109375 0.296875 -0.3125 0.46875q-0.203125 0.1875 -0.53125 0.171875z" fill-rule="nonzero"/><path fill="#000000" fill-opacity="0.0" d="m508.94226 22.47769l0 0" fill-rule="evenodd"/><path stroke="#000000" stroke-width="1.0" stroke-linejoin="round" stroke-linecap="butt" d="m508.94226 22.47769l0 0" fill-rule="evenodd"/><path fill="#000000" fill-opacity="0.0" d="m508.94226 22.47769l0 12.913385" fill-rule="evenodd"/><path stroke="#6aa84f" stroke-width="1.0" stroke-linejoin="round" stroke-linecap="butt" d="m508.94226 22.47769l0 9.486301" fill-rule="evenodd"/><path fill="#6aa84f" stroke="#6aa84f" stroke-width="1.0" stroke-linecap="butt" d="m508.94226 31.96399l-1.1245728 -1.1245842l1.1245728 3.0897675l1.1245728 -3.0897675z" fill-rule="evenodd"/><path fill="#000000" fill-opacity="0.0" d="m572.0761 33.91601l61.95276 0l0 35.559055l-61.95276 0z" fill-rule="evenodd"/><path fill="#6aa84f" d="m593.80524 54.669136q0 0.5 0.328125 0.84375q0.34375 0.328125 0.921875 0.328125q0.578125 0 0.921875 -0.328125q0.34375 -0.34375 0.34375 -0.84375q0 -0.515625 -0.34375 -0.859375q-0.328125 -0.34375 -0.921875 -0.34375q-0.59375 0 -0.921875 0.359375q-0.328125 0.34375 -0.328125 0.84375zm7.998169 0q0 0.5 0.328125 0.84375q0.34375 0.328125 0.921875 0.328125q0.578125 0 0.921875 -0.328125q0.34375 -0.34375 0.34375 -0.84375q0 -0.515625 -0.34375 -0.859375q-0.328125 -0.34375 -0.921875 -0.34375q-0.59375 0 -0.921875 0.359375q-0.328125 0.34375 -0.328125 0.84375zm7.998169 0q0 0.5 0.328125 0.84375q0.34375 0.328125 0.921875 0.328125q0.578125 0 0.921875 -0.328125q0.34375 -0.34375 0.34375 -0.84375q0 -0.515625 -0.34375 -0.859375q-0.328125 -0.34375 -0.921875 -0.34375q-0.59375 0 -0.921875 0.359375q-0.328125 0.34375 -0.328125 0.84375z" fill-rule="nonzero"/><path fill="#000000" fill-opacity="0.0" d="m391.15485 54.32021l113.7323 0l0 16.157482l-113.7323 0z" fill-rule="evenodd"/><path fill="#4a86e8" d="m434.15054 69.5427l0.21875 -1.03125q-0.328125 0.015625 -0.53125 -0.171875q-0.203125 -0.171875 -0.328125 -0.46875q-0.109375 -0.28125 -0.15625 -0.65625q-0.046875 -0.359375 -0.046875 -0.703125l0 -1.0625q0 -0.78125 -0.375 -1.359375q-0.375 -0.59375 -1.1875 -0.90625q0.796875 -0.3125 1.171875 -0.90625q0.390625 -0.609375 0.390625 -1.390625l0 -1.046875q0 -0.359375 0.015625 -0.71875q0.015625 -0.359375 0.125 -0.65625q0.09375 -0.296875 0.296875 -0.46875q0.21875 -0.1875 0.625 -0.171875l-0.21875 -1.015625q-0.640625 0 -1.09375 0.25q-0.453125 0.234375 -0.734375 0.609375q-0.34375 0.4375 -0.5 1.03125q-0.15625 0.578125 -0.15625 1.140625l0 1.046875q0 0.890625 -0.40625 1.265625q-0.390625 0.375 -1.21875 0.375l0 1.296875q0.828125 0 1.21875 0.390625q0.40625 0.375 0.40625 1.234375l0 1.0625q0 0.515625 0.140625 1.046875q0.140625 0.53125 0.453125 0.984375q0.296875 0.4375 0.765625 0.71875q0.46875 0.28125 1.125 0.28125zm5.904419 -3.65625q-0.4375 0 -0.71875 -0.171875q-0.28125 -0.1875 -0.4375 -0.46875q-0.171875 -0.296875 -0.234375 -0.671875q-0.0625 -0.375 -0.0625 -0.796875l0 -0.1875q0 -0.40625 0.0625 -0.78125q0.0625 -0.375 0.234375 -0.671875q0.171875 -0.296875 0.4375 -0.46875q0.28125 -0.171875 0.71875 -0.171875q0.296875 0 0.53125 0.109375q0.25 0.09375 0.421875 0.25q0.1875 0.171875 0.265625 0.40625q0.09375 0.234375 0.09375 0.5l1.703125 0q0 -0.625 -0.21875 -1.125q-0.21875 -0.515625 -0.609375 -0.875q-0.40625 -0.34375 -0.96875 -0.53125q-0.546875 -0.203125 -1.203125 -0.203125q-0.8125 0 -1.421875 0.28125q-0.609375 0.28125 -1.03125 0.765625q-0.421875 0.46875 -0.625 1.125q-0.203125 0.640625 -0.203125 1.390625l0 0.1875q0 0.75 0.203125 1.40625q0.21875 0.640625 0.625 1.125q0.421875 0.46875 1.03125 0.75q0.625 0.28125 1.4375 0.28125q0.609375 0 1.15625 -0.1875q0.546875 -0.203125 0.953125 -0.53125q0.40625 -0.34375 0.640625 -0.8125q0.234375 -0.46875 0.234375 -1.015625l-1.703125 0q0 0.25 -0.109375 0.453125q-0.09375 0.203125 -0.265625 0.34375q-0.1875 0.140625 -0.4375 0.21875q-0.234375 0.078125 -0.5 0.078125zm6.0138245 -5.734375l-1.5625 0l0 7.046875l1.65625 0l0 -5.265625q0.03125 -0.09375 0.0625 -0.15625q0.046875 -0.078125 0.09375 -0.125q0.078125 -0.078125 0.15625 -0.109375q0.09375 -0.046875 0.21875 -0.046875q0.09375 0 0.1875 0.03125q0.09375 0.03125 0.171875 0.09375q0.0625 0.078125 0.09375 0.21875q0.046875 0.125 0.046875 0.328125l0 5.03125l1.59375 0l0 -5.1875q0 -0.078125 0 -0.125q0 -0.046875 0 -0.0625q0.03125 -0.078125 0.078125 -0.125q0.046875 -0.0625 0.109375 -0.109375q0.0625 -0.046875 0.140625 -0.0625q0.09375 -0.03125 0.1875 -0.03125q0.09375 0 0.1875 0.03125q0.109375 0.03125 0.171875 0.09375q0.078125 0.078125 0.109375 0.21875q0.046875 0.125 0.046875 0.328125l0 5.03125l1.640625 0l0 -5.03125q0 -0.578125 -0.109375 -0.984375q-0.109375 -0.40625 -0.3125 -0.671875q-0.203125 -0.25 -0.484375 -0.359375q-0.28125 -0.125 -0.59375 -0.125q-0.25 0 -0.46875 0.0625q-0.21875 0.0625 -0.390625 0.1875q-0.125 0.09375 -0.25 0.21875q-0.109375 0.125 -0.203125 0.28125q-0.0625 -0.171875 -0.140625 -0.296875q-0.078125 -0.125 -0.1875 -0.21875q-0.140625 -0.109375 -0.34375 -0.171875q-0.1875 -0.0625 -0.4375 -0.0625q-0.515625 0 -0.875 0.265625q-0.34375 0.265625 -0.546875 0.71875l-0.046875 -0.859375zm6.685669 3.46875l0 0.140625q0 0.765625 0.1875 1.421875q0.1875 0.65625 0.546875 1.125q0.34375 0.484375 0.859375 0.75q0.515625 0.265625 1.15625 0.265625q0.59375 0 1.03125 -0.21875q0.453125 -0.234375 0.78125 -0.640625l0.09375 0.734375l1.640625 0l0 -10.0l-1.8125 0l0 3.59375q-0.328125 -0.375 -0.75 -0.5625q-0.421875 -0.203125 -0.96875 -0.203125q-0.65625 0 -1.171875 0.265625q-0.515625 0.25 -0.875 0.734375q-0.359375 0.46875 -0.546875 1.140625q-0.171875 0.65625 -0.171875 1.453125zm1.796875 0.140625l0 -0.140625q0 -0.4375 0.078125 -0.828125q0.078125 -0.390625 0.25 -0.671875q0.171875 -0.296875 0.4375 -0.453125q0.28125 -0.171875 0.65625 -0.171875q0.46875 0 0.765625 0.203125q0.3125 0.203125 0.5 0.546875l0 2.859375q-0.1875 0.34375 -0.5 0.546875q-0.3125 0.203125 -0.78125 0.203125q-0.375 0 -0.640625 -0.15625q-0.265625 -0.171875 -0.4375 -0.453125q-0.171875 -0.28125 -0.25 -0.65625q-0.078125 -0.390625 -0.078125 -0.828125zm7.6231995 4.75l0.21875 1.03125q0.65625 0 1.125 -0.28125q0.46875 -0.265625 0.765625 -0.71875q0.296875 -0.4375 0.4375 -0.984375q0.15625 -0.546875 0.15625 -1.046875l0 -1.0625q0 -0.3125 0.046875 -0.546875q0.046875 -0.25 0.140625 -0.4375q0.1875 -0.328125 0.546875 -0.484375q0.359375 -0.15625 0.890625 -0.15625l0 -1.296875q-0.484375 0 -0.828125 -0.125q-0.328125 -0.125 -0.515625 -0.390625q-0.15625 -0.1875 -0.21875 -0.46875q-0.0625 -0.28125 -0.0625 -0.65625l0 -1.046875q0 -0.5 -0.125 -1.03125q-0.125 -0.53125 -0.40625 -0.96875q-0.296875 -0.46875 -0.78125 -0.75q-0.46875 -0.28125 -1.171875 -0.28125l-0.21875 1.015625q0.40625 -0.015625 0.609375 0.171875q0.21875 0.171875 0.3125 0.46875q0.109375 0.296875 0.125 0.65625q0.015625 0.359375 0.015625 0.71875l0 1.046875q0 0.453125 0.125 0.859375q0.125 0.390625 0.375 0.71875q0.171875 0.21875 0.40625 0.40625q0.25 0.1875 0.5625 0.3125q-0.375 0.15625 -0.65625 0.390625q-0.28125 0.234375 -0.453125 0.53125q-0.1875 0.28125 -0.28125 0.625q-0.078125 0.34375 -0.078125 0.71875l0 1.0625q0 0.34375 -0.046875 0.703125q-0.046875 0.375 -0.171875 0.65625q-0.109375 0.296875 -0.3125 0.46875q-0.203125 0.1875 -0.53125 0.171875z" fill-rule="nonzero"/><path fill="#000000" fill-opacity="0.0" d="m448.021 70.47769l0 12.9133835" fill-rule="evenodd"/><path stroke="#4a86e8" stroke-width="1.0" stroke-linejoin="round" stroke-linecap="butt" d="m448.021 70.47769l0 9.486298" fill-rule="evenodd"/><path fill="#4a86e8" stroke="#4a86e8" stroke-width="1.0" stroke-linecap="butt" d="m448.021 79.96399l-1.1245728 -1.1245804l1.1245728 3.0897675l1.1245728 -3.0897675z" fill-rule="evenodd"/><path fill="#000000" fill-opacity="0.0" d="m572.0761 129.91602l61.95276 0l0 35.55905l-61.95276 0z" fill-rule="evenodd"/><path fill="#4a86e8" d="m593.80524 150.66913q0 0.5 0.328125 0.84375q0.34375 0.328125 0.921875 0.328125q0.578125 0 0.921875 -0.328125q0.34375 -0.34375 0.34375 -0.84375q0 -0.515625 -0.34375 -0.859375q-0.328125 -0.34375 -0.921875 -0.34375q-0.59375 0 -0.921875 0.359375q-0.328125 0.34375 -0.328125 0.84375zm7.998169 0q0 0.5 0.328125 0.84375q0.34375 0.328125 0.921875 0.328125q0.578125 0 0.921875 -0.328125q0.34375 -0.34375 0.34375 -0.84375q0 -0.515625 -0.34375 -0.859375q-0.328125 -0.34375 -0.921875 -0.34375q-0.59375 0 -0.921875 0.359375q-0.328125 0.34375 -0.328125 0.84375zm7.998169 0q0 0.5 0.328125 0.84375q0.34375 0.328125 0.921875 0.328125q0.578125 0 0.921875 -0.328125q0.34375 -0.34375 0.34375 -0.84375q0 -0.515625 -0.34375 -0.859375q-0.328125 -0.34375 -0.921875 -0.34375q-0.59375 0 -0.921875 0.359375q-0.328125 0.34375 -0.328125 0.84375z" fill-rule="nonzero"/><path fill="#cfe2f3" d="m87.88714 49.27034l7.724411 0l0 7.157482l-7.724411 0z" fill-rule="evenodd"/><path fill="#a5b4c2" d="m95.61155 49.27034l2.385826 -2.385826l0 7.157482l-2.385826 2.385826z" fill-rule="evenodd"/><path fill="#d8e7f5" d="m87.88714 49.27034l2.385826 -2.385826l7.724411 0l-2.385826 2.385826z" fill-rule="evenodd"/><path fill="#000000" fill-opacity="0.0" d="m87.88714 49.27034l2.385826 -2.385826l7.724411 0l0 7.157482l-2.385826 2.385826l-7.724411 0zm0 0l7.724411 0l2.385826 -2.385826m-2.385826 2.385826l0 7.157482" fill-rule="evenodd"/><path stroke="#000000" stroke-width="1.0" stroke-linejoin="round" stroke-linecap="butt" d="m87.88714 49.27034l2.385826 -2.385826l7.724411 0l0 7.157482l-2.385826 2.385826l-7.724411 0zm0 0l7.724411 0l2.385826 -2.385826m-2.385826 2.385826l0 7.157482" fill-rule="evenodd"/><path fill="#cfe2f3" d="m151.88715 25.270342l7.7243958 0l0 7.1574802l-7.7243958 0z" fill-rule="evenodd"/><path fill="#a5b4c2" d="m159.61154 25.270342l2.3858337 -2.385828l0 7.1574802l-2.3858337 2.385828z" fill-rule="evenodd"/><path fill="#d8e7f5" d="m151.88715 25.270342l2.3858185 -2.385828l7.724411 0l-2.3858337 2.385828z" fill-rule="evenodd"/><path fill="#000000" fill-opacity="0.0" d="m151.88715 25.270342l2.3858185 -2.385828l7.724411 0l0 7.1574802l-2.3858337 2.385828l-7.7243958 0zm0 0l7.7243958 0l2.3858337 -2.385828m-2.3858337 2.385828l0 7.1574802" fill-rule="evenodd"/><path stroke="#000000" stroke-width="1.0" stroke-linejoin="round" stroke-linecap="butt" d="m151.88715 25.270342l2.3858185 -2.385828l7.724411 0l0 7.1574802l-2.3858337 2.385828l-7.7243958 0zm0 0l7.7243958 0l2.3858337 -2.385828m-2.3858337 2.385828l0 7.1574802" fill-rule="evenodd"/><path fill="#cfe2f3" d="m151.88715 121.27034l7.7243958 0l0 7.157486l-7.7243958 0z" fill-rule="evenodd"/><path fill="#a5b4c2" d="m159.61154 121.27034l2.3858337 -2.385826l0 7.1574783l-2.3858337 2.3858337z" fill-rule="evenodd"/><path fill="#d8e7f5" d="m151.88715 121.27034l2.3858185 -2.385826l7.724411 0l-2.3858337 2.385826z" fill-rule="evenodd"/><path fill="#000000" fill-opacity="0.0" d="m151.88715 121.27034l2.3858185 -2.385826l7.724411 0l0 7.1574783l-2.3858337 2.3858337l-7.7243958 0zm0 0l7.7243958 0l2.3858337 -2.385826m-2.3858337 2.385826l0 7.157486" fill-rule="evenodd"/><path stroke="#000000" stroke-width="1.0" stroke-linejoin="round" stroke-linecap="butt" d="m151.88715 121.27034l2.3858185 -2.385826l7.724411 0l0 7.1574783l-2.3858337 2.3858337l-7.7243958 0zm0 0l7.7243958 0l2.3858337 -2.385826m-2.3858337 2.385826l0 7.157486" fill-rule="evenodd"/><path fill="#cfe2f3" d="m151.88715 169.27034l7.7243958 0l0 7.157486l-7.7243958 0z" fill-rule="evenodd"/><path fill="#a5b4c2" d="m159.61154 169.27034l2.3858337 -2.3858185l0 7.1574707l-2.3858337 2.3858337z" fill-rule="evenodd"/><path fill="#d8e7f5" d="m151.88715 169.27034l2.3858185 -2.3858185l7.724411 0l-2.3858337 2.3858185z" fill-rule="evenodd"/><path fill="#000000" fill-opacity="0.0" d="m151.88715 169.27034l2.3858185 -2.3858185l7.724411 0l0 7.1574707l-2.3858337 2.3858337l-7.7243958 0zm0 0l7.7243958 0l2.3858337 -2.3858185m-2.3858337 2.3858185l0 7.157486" fill-rule="evenodd"/><path stroke="#000000" stroke-width="1.0" stroke-linejoin="round" stroke-linecap="butt" d="m151.88715 169.27034l2.3858185 -2.3858185l7.724411 0l0 7.1574707l-2.3858337 2.3858337l-7.7243958 0zm0 0l7.7243958 0l2.3858337 -2.3858185m-2.3858337 2.3858185l0 7.157486" fill-rule="evenodd"/><path fill="#cfe2f3" d="m295.88715 49.27034l7.7243958 0l0 7.157482l-7.7243958 0z" fill-rule="evenodd"/><path fill="#a5b4c2" d="m303.61154 49.27034l2.3858337 -2.385826l0 7.157482l-2.3858337 2.385826z" fill-rule="evenodd"/><path fill="#d8e7f5" d="m295.88715 49.27034l2.3858337 -2.385826l7.7243958 0l-2.3858337 2.385826z" fill-rule="evenodd"/><path fill="#000000" fill-opacity="0.0" d="m295.88715 49.27034l2.3858337 -2.385826l7.7243958 0l0 7.157482l-2.3858337 2.385826l-7.7243958 0zm0 0l7.7243958 0l2.3858337 -2.385826m-2.3858337 2.385826l0 7.157482" fill-rule="evenodd"/><path stroke="#000000" stroke-width="1.0" stroke-linejoin="round" stroke-linecap="butt" d="m295.88715 49.27034l2.3858337 -2.385826l7.7243958 0l0 7.157482l-2.3858337 2.385826l-7.7243958 0zm0 0l7.7243958 0l2.3858337 -2.385826m-2.3858337 2.385826l0 7.157482" fill-rule="evenodd"/><path fill="#cfe2f3" d="m359.88715 25.270342l7.7243958 0l0 7.1574802l-7.7243958 0z" fill-rule="evenodd"/><path fill="#a5b4c2" d="m367.61154 25.270342l2.3858337 -2.385828l0 7.1574802l-2.3858337 2.385828z" fill-rule="evenodd"/><path fill="#d8e7f5" d="m359.88715 25.270342l2.3858337 -2.385828l7.7243958 0l-2.3858337 2.385828z" fill-rule="evenodd"/><path fill="#000000" fill-opacity="0.0" d="m359.88715 25.270342l2.3858337 -2.385828l7.7243958 0l0 7.1574802l-2.3858337 2.385828l-7.7243958 0zm0 0l7.7243958 0l2.3858337 -2.385828m-2.3858337 2.385828l0 7.1574802" fill-rule="evenodd"/><path stroke="#000000" stroke-width="1.0" stroke-linejoin="round" stroke-linecap="butt" d="m359.88715 25.270342l2.3858337 -2.385828l7.7243958 0l0 7.1574802l-2.3858337 2.385828l-7.7243958 0zm0 0l7.7243958 0l2.3858337 -2.385828m-2.3858337 2.385828l0 7.1574802" fill-rule="evenodd"/><path fill="#cfe2f3" d="m359.88715 169.27034l7.7243958 0l0 7.157486l-7.7243958 0z" fill-rule="evenodd"/><path fill="#a5b4c2" d="m367.61154 169.27034l2.3858337 -2.3858185l0 7.1574707l-2.3858337 2.3858337z" fill-rule="evenodd"/><path fill="#d8e7f5" d="m359.88715 169.27034l2.3858337 -2.3858185l7.7243958 0l-2.3858337 2.3858185z" fill-rule="evenodd"/><path fill="#000000" fill-opacity="0.0" d="m359.88715 169.27034l2.3858337 -2.3858185l7.7243958 0l0 7.1574707l-2.3858337 2.3858337l-7.7243958 0zm0 0l7.7243958 0l2.3858337 -2.3858185m-2.3858337 2.3858185l0 7.157486" fill-rule="evenodd"/><path stroke="#000000" stroke-width="1.0" stroke-linejoin="round" stroke-linecap="butt" d="m359.88715 169.27034l2.3858337 -2.3858185l7.7243958 0l0 7.1574707l-2.3858337 2.3858337l-7.7243958 0zm0 0l7.7243958 0l2.3858337 -2.3858185m-2.3858337 2.3858185l0 7.157486" fill-rule="evenodd"/><path fill="#cfe2f3" d="m359.88715 121.27034l7.7243958 0l0 7.157486l-7.7243958 0z" fill-rule="evenodd"/><path fill="#a5b4c2" d="m367.61154 121.27034l2.3858337 -2.385826l0 7.1574783l-2.3858337 2.3858337z" fill-rule="evenodd"/><path fill="#d8e7f5" d="m359.88715 121.27034l2.3858337 -2.385826l7.7243958 0l-2.3858337 2.385826z" fill-rule="evenodd"/><path fill="#000000" fill-opacity="0.0" d="m359.88715 121.27034l2.3858337 -2.385826l7.7243958 0l0 7.1574783l-2.3858337 2.3858337l-7.7243958 0zm0 0l7.7243958 0l2.3858337 -2.385826m-2.3858337 2.385826l0 7.157486" fill-rule="evenodd"/><path stroke="#000000" stroke-width="1.0" stroke-linejoin="round" stroke-linecap="butt" d="m359.88715 121.27034l2.3858337 -2.385826l7.7243958 0l0 7.1574783l-2.3858337 2.3858337l-7.7243958 0zm0 0l7.7243958 0l2.3858337 -2.385826m-2.3858337 2.385826l0 7.157486" fill-rule="evenodd"/><path fill="#cfe2f3" d="m503.88715 49.27034l7.7243958 0l0 7.157482l-7.7243958 0z" fill-rule="evenodd"/><path fill="#a5b4c2" d="m511.61154 49.27034l2.3858337 -2.385826l0 7.157482l-2.3858337 2.385826z" fill-rule="evenodd"/><path fill="#d8e7f5" d="m503.88715 49.27034l2.3858337 -2.385826l7.7243958 0l-2.3858337 2.385826z" fill-rule="evenodd"/><path fill="#000000" fill-opacity="0.0" d="m503.88715 49.27034l2.3858337 -2.385826l7.7243958 0l0 7.157482l-2.3858337 2.385826l-7.7243958 0zm0 0l7.7243958 0l2.3858337 -2.385826m-2.3858337 2.385826l0 7.157482" fill-rule="evenodd"/><path stroke="#000000" stroke-width="1.0" stroke-linejoin="round" stroke-linecap="butt" d="m503.88715 49.27034l2.3858337 -2.385826l7.7243958 0l0 7.157482l-2.3858337 2.385826l-7.7243958 0zm0 0l7.7243958 0l2.3858337 -2.385826m-2.3858337 2.385826l0 7.157482" fill-rule="evenodd"/><path fill="#cfe2f3" d="m567.88715 25.270342l7.7244263 0l0 7.1574802l-7.7244263 0z" fill-rule="evenodd"/><path fill="#a5b4c2" d="m575.6116 25.270342l2.3858032 -2.385828l0 7.1574802l-2.3858032 2.385828z" fill-rule="evenodd"/><path fill="#d8e7f5" d="m567.88715 25.270342l2.3858032 -2.385828l7.7244263 0l-2.3858032 2.385828z" fill-rule="evenodd"/><path fill="#000000" fill-opacity="0.0" d="m567.88715 25.270342l2.3858032 -2.385828l7.7244263 0l0 7.1574802l-2.3858032 2.385828l-7.7244263 0zm0 0l7.7244263 0l2.3858032 -2.385828m-2.3858032 2.385828l0 7.1574802" fill-rule="evenodd"/><path stroke="#000000" stroke-width="1.0" stroke-linejoin="round" stroke-linecap="butt" d="m567.88715 25.270342l2.3858032 -2.385828l7.7244263 0l0 7.1574802l-2.3858032 2.385828l-7.7244263 0zm0 0l7.7244263 0l2.3858032 -2.385828m-2.3858032 2.385828l0 7.1574802" fill-rule="evenodd"/><path fill="#cfe2f3" d="m567.88715 121.27034l7.7244263 0l0 7.157486l-7.7244263 0z" fill-rule="evenodd"/><path fill="#a5b4c2" d="m575.6116 121.27034l2.3858032 -2.385826l0 7.1574783l-2.3858032 2.3858337z" fill-rule="evenodd"/><path fill="#d8e7f5" d="m567.88715 121.27034l2.3858032 -2.385826l7.7244263 0l-2.3858032 2.385826z" fill-rule="evenodd"/><path fill="#000000" fill-opacity="0.0" d="m567.88715 121.27034l2.3858032 -2.385826l7.7244263 0l0 7.1574783l-2.3858032 2.3858337l-7.7244263 0zm0 0l7.7244263 0l2.3858032 -2.385826m-2.3858032 2.385826l0 7.157486" fill-rule="evenodd"/><path stroke="#000000" stroke-width="1.0" stroke-linejoin="round" stroke-linecap="butt" d="m567.88715 121.27034l2.3858032 -2.385826l7.7244263 0l0 7.1574783l-2.3858032 2.3858337l-7.7244263 0zm0 0l7.7244263 0l2.3858032 -2.385826m-2.3858032 2.385826l0 7.157486" fill-rule="evenodd"/><path fill="#cfe2f3" d="m567.88715 169.27034l7.7244263 0l0 7.157486l-7.7244263 0z" fill-rule="evenodd"/><path fill="#a5b4c2" d="m575.6116 169.27034l2.3858032 -2.3858185l0 7.1574707l-2.3858032 2.3858337z" fill-rule="evenodd"/><path fill="#d8e7f5" d="m567.88715 169.27034l2.3858032 -2.3858185l7.7244263 0l-2.3858032 2.3858185z" fill-rule="evenodd"/><path fill="#000000" fill-opacity="0.0" d="m567.88715 169.27034l2.3858032 -2.3858185l7.7244263 0l0 7.1574707l-2.3858032 2.3858337l-7.7244263 0zm0 0l7.7244263 0l2.3858032 -2.3858185m-2.3858032 2.3858185l0 7.157486" fill-rule="evenodd"/><path stroke="#000000" stroke-width="1.0" stroke-linejoin="round" stroke-linecap="butt" d="m567.88715 169.27034l2.3858032 -2.3858185l7.7244263 0l0 7.1574707l-2.3858032 2.3858337l-7.7244263 0zm0 0l7.7244263 0l2.3858032 -2.3858185m-2.3858032 2.3858185l0 7.157486" fill-rule="evenodd"/><path fill="#cfe2f3" d="m557.38153 209.26651l7.724365 0l0 7.1574707l-7.724365 0z" fill-rule="evenodd"/><path fill="#a5b4c2" d="m565.1059 209.26651l2.3858643 -2.3858337l0 7.157486l-2.3858643 2.3858185z" fill-rule="evenodd"/><path fill="#d8e7f5" d="m557.38153 209.26651l2.3858032 -2.3858337l7.7244263 0l-2.3858643 2.3858337z" fill-rule="evenodd"/><path fill="#000000" fill-opacity="0.0" d="m557.38153 209.26651l2.3858032 -2.3858337l7.7244263 0l0 7.157486l-2.3858643 2.3858185l-7.724365 0zm0 0l7.724365 0l2.3858643 -2.3858337m-2.3858643 2.3858337l0 7.1574707" fill-rule="evenodd"/><path stroke="#000000" stroke-width="1.0" stroke-linejoin="round" stroke-linecap="butt" d="m557.38153 209.26651l2.3858032 -2.3858337l7.7244263 0l0 7.157486l-2.3858643 2.3858185l-7.724365 0zm0 0l7.724365 0l2.3858643 -2.3858337m-2.3858643 2.3858337l0 7.1574707" fill-rule="evenodd"/><path fill="#000000" fill-opacity="0.0" d="m567.0341 202.53806l53.606323 0l0 16.157486l-53.606323 0z" fill-rule="evenodd"/><path fill="#000000" d="m579.6543 213.5418q0 0.171875 -0.0625 0.328125q-0.0625 0.140625 -0.1875 0.265625q-0.203125 0.203125 -0.5625 0.328125q-0.359375 0.109375 -0.84375 0.109375q-0.296875 0 -0.609375 -0.0625q-0.3125 -0.0625 -0.578125 -0.21875q-0.25 -0.15625 -0.421875 -0.40625q-0.171875 -0.265625 -0.203125 -0.640625l-1.203125 0q0 0.453125 0.203125 0.875q0.203125 0.40625 0.59375 0.71875q0.390625 0.328125 0.9375 0.515625q0.5625 0.1875 1.28125 0.1875q0.625 0 1.15625 -0.140625q0.53125 -0.15625 0.90625 -0.421875q0.375 -0.28125 0.578125 -0.65625q0.21875 -0.390625 0.21875 -0.859375q0 -0.4375 -0.1875 -0.765625q-0.1875 -0.328125 -0.53125 -0.59375q-0.359375 -0.234375 -0.875 -0.40625q-0.515625 -0.1875 -1.15625 -0.328125q-0.5 -0.09375 -0.828125 -0.203125q-0.3125 -0.109375 -0.5 -0.234375q-0.203125 -0.125 -0.28125 -0.28125q-0.078125 -0.171875 -0.078125 -0.375q0 -0.203125 0.09375 -0.390625q0.109375 -0.203125 0.296875 -0.34375q0.1875 -0.140625 0.46875 -0.21875q0.296875 -0.09375 0.6875 -0.09375q0.375 0 0.671875 0.109375q0.296875 0.109375 0.5 0.265625q0.203125 0.171875 0.3125 0.390625q0.125 0.21875 0.125 0.453125l1.203125 0q0 -0.46875 -0.203125 -0.859375q-0.1875 -0.40625 -0.546875 -0.703125q-0.375 -0.296875 -0.890625 -0.46875q-0.515625 -0.171875 -1.171875 -0.171875q-0.609375 0 -1.109375 0.171875q-0.5 0.15625 -0.875 0.4375q-0.359375 0.28125 -0.5625 0.65625q-0.203125 0.375 -0.203125 0.796875q0 0.4375 0.1875 0.765625q0.203125 0.328125 0.5625 0.5625q0.359375 0.25 0.84375 0.4375q0.5 0.171875 1.109375 0.296875q0.5 0.09375 0.828125 0.21875q0.328125 0.109375 0.53125 0.25q0.203125 0.15625 0.28125 0.328125q0.09375 0.171875 0.09375 0.375zm6.170044 -6.875l-1.21875 0l0 1.703125l-1.84375 0l0 0.9375l1.84375 0l0 3.828125q0 0.640625 0.171875 1.109375q0.1875 0.453125 0.484375 0.75q0.296875 0.28125 0.703125 0.421875q0.40625 0.125 0.875 0.125q0.28125 0 0.5625 -0.03125q0.28125 -0.015625 0.53125 -0.0625q0.265625 -0.046875 0.46875 -0.109375q0.21875 -0.078125 0.375 -0.171875l-0.171875 -0.84375q-0.109375 0.015625 -0.28125 0.0625q-0.171875 0.03125 -0.375 0.0625q-0.203125 0.03125 -0.40625 0.0625q-0.203125 0.015625 -0.40625 0.015625q-0.265625 0 -0.5 -0.0625q-0.234375 -0.0625 -0.421875 -0.234375q-0.1875 -0.15625 -0.296875 -0.421875q-0.09375 -0.265625 -0.09375 -0.671875l0 -3.828125l2.6875 0l0 -0.9375l-2.6875 0l0 -1.703125zm9.77948 8.75l1.25 0l0 -0.109375q-0.125 -0.28125 -0.1875 -0.671875q-0.0625 -0.40625 -0.0625 -0.75l0 -3.28125q0 -0.59375 -0.21875 -1.03125q-0.203125 -0.4375 -0.578125 -0.75q-0.375 -0.28125 -0.890625 -0.421875q-0.515625 -0.15625 -1.109375 -0.15625q-0.65625 0 -1.1875 0.1875q-0.515625 0.171875 -0.875 0.46875q-0.359375 0.296875 -0.546875 0.671875q-0.1875 0.375 -0.203125 0.75l1.21875 0q0 -0.21875 0.09375 -0.421875q0.109375 -0.203125 0.3125 -0.359375q0.1875 -0.140625 0.46875 -0.234375q0.296875 -0.09375 0.640625 -0.09375q0.390625 0 0.703125 0.109375q0.3125 0.09375 0.515625 0.265625q0.21875 0.171875 0.328125 0.4375q0.125 0.25 0.125 0.5625l0 0.5625l-1.3125 0q-0.734375 0 -1.328125 0.140625q-0.59375 0.140625 -1.015625 0.421875q-0.421875 0.296875 -0.65625 0.734375q-0.234375 0.4375 -0.234375 1.015625q0 0.4375 0.171875 0.828125q0.171875 0.375 0.484375 0.65625q0.3125 0.28125 0.765625 0.4375q0.453125 0.15625 1.015625 0.15625q0.34375 0 0.640625 -0.078125q0.3125 -0.0625 0.59375 -0.1875q0.265625 -0.125 0.484375 -0.28125q0.234375 -0.15625 0.40625 -0.34375q0.03125 0.21875 0.0625 0.421875q0.046875 0.203125 0.125 0.34375zm-2.140625 -0.921875q-0.34375 0 -0.609375 -0.078125q-0.265625 -0.09375 -0.4375 -0.265625q-0.1875 -0.15625 -0.28125 -0.375q-0.078125 -0.21875 -0.078125 -0.484375q0 -0.265625 0.09375 -0.484375q0.109375 -0.21875 0.296875 -0.375q0.28125 -0.21875 0.734375 -0.328125q0.46875 -0.109375 1.09375 -0.109375l1.125 0l0 1.4375q-0.109375 0.203125 -0.296875 0.390625q-0.171875 0.1875 -0.421875 0.34375q-0.25 0.15625 -0.5625 0.25q-0.296875 0.078125 -0.65625 0.078125zm8.498169 0.078125q-0.5625 0 -0.9375 -0.21875q-0.375 -0.234375 -0.609375 -0.59375q-0.234375 -0.359375 -0.34375 -0.8125q-0.09375 -0.453125 -0.09375 -0.921875l0 -0.265625q0 -0.453125 0.09375 -0.90625q0.109375 -0.453125 0.34375 -0.8125q0.234375 -0.359375 0.609375 -0.578125q0.390625 -0.234375 0.9375 -0.234375q0.375 0 0.6875 0.125q0.3125 0.125 0.546875 0.34375q0.21875 0.21875 0.34375 0.5q0.140625 0.28125 0.15625 0.59375l1.140625 0q0 -0.53125 -0.21875 -1.0q-0.21875 -0.46875 -0.59375 -0.8125q-0.375 -0.34375 -0.90625 -0.53125q-0.53125 -0.203125 -1.15625 -0.203125q-0.796875 0 -1.390625 0.296875q-0.59375 0.28125 -1.0 0.75q-0.40625 0.5 -0.609375 1.140625q-0.1875 0.625 -0.1875 1.328125l0 0.265625q0 0.703125 0.1875 1.34375q0.203125 0.640625 0.609375 1.109375q0.40625 0.5 1.0 0.78125q0.59375 0.28125 1.390625 0.28125q0.5625 0 1.078125 -0.1875q0.515625 -0.1875 0.921875 -0.515625q0.390625 -0.3125 0.625 -0.734375q0.234375 -0.4375 0.25 -0.90625l-1.140625 0q-0.015625 0.296875 -0.15625 0.546875q-0.140625 0.25 -0.390625 0.421875q-0.234375 0.203125 -0.546875 0.3125q-0.3125 0.09375 -0.640625 0.09375zm7.107544 -2.4375l2.59375 3.28125l1.53125 0l-3.296875 -4.109375l2.859375 -2.9375l-1.46875 0l-2.3125 2.328125l-0.78125 0.84375l0 -6.125l-1.21875 0l0 10.0l1.21875 0l0 -2.4375l0.875 -0.84375z" fill-rule="nonzero"/><path fill="#000000" fill-opacity="0.0" d="m479.03412 202.53806l53.606323 0l0 16.157486l-53.606323 0z" fill-rule="evenodd"/><path fill="#000000" d="m494.74625 211.83867l0 0.140625q0 0.75 0.203125 1.40625q0.203125 0.65625 0.5625 1.140625q0.359375 0.46875 0.875 0.75q0.53125 0.265625 1.15625 0.265625q0.65625 0 1.140625 -0.21875q0.5 -0.21875 0.84375 -0.640625l0.046875 0.734375l1.109375 0l0 -10.0l-1.203125 0l0 3.65625q-0.34375 -0.40625 -0.8125 -0.609375q-0.46875 -0.21875 -1.109375 -0.21875q-0.640625 0 -1.171875 0.265625q-0.515625 0.265625 -0.875 0.75q-0.375 0.46875 -0.578125 1.140625q-0.1875 0.65625 -0.1875 1.4375zm1.203125 0.140625l0 -0.140625q0 -0.515625 0.109375 -0.984375q0.109375 -0.46875 0.34375 -0.8125q0.234375 -0.359375 0.59375 -0.5625q0.359375 -0.21875 0.859375 -0.21875q0.59375 0 0.984375 0.28125q0.40625 0.28125 0.640625 0.703125l0 3.265625q-0.234375 0.46875 -0.640625 0.75q-0.390625 0.265625 -0.984375 0.265625q-0.515625 0 -0.875 -0.203125q-0.34375 -0.203125 -0.578125 -0.5625q-0.234375 -0.34375 -0.34375 -0.796875q-0.109375 -0.46875 -0.109375 -0.984375zm7.216919 -3.609375l0 1.046875l2.390625 0l0 4.953125l-2.390625 0l0 1.046875l5.890625 0l0 -1.046875l-2.296875 0l0 -6.0l-3.59375 0zm2.234375 -1.84375q0 0.296875 0.171875 0.5q0.1875 0.1875 0.546875 0.1875q0.359375 0 0.53125 -0.1875q0.1875 -0.203125 0.1875 -0.5q0 -0.15625 -0.046875 -0.296875q-0.046875 -0.140625 -0.15625 -0.234375q-0.078125 -0.078125 -0.21875 -0.125q-0.125 -0.046875 -0.296875 -0.046875q-0.171875 0 -0.3125 0.046875q-0.125 0.046875 -0.203125 0.125q-0.109375 0.109375 -0.15625 0.25q-0.046875 0.125 -0.046875 0.28125zm10.185699 1.71875q-0.765625 0 -1.375 0.34375q-0.59375 0.328125 -1.03125 0.90625l0 -0.171875l-0.0625 -0.953125l-1.140625 0l0 7.046875l1.203125 0l0 -4.515625q0.125 -0.328125 0.296875 -0.59375q0.1875 -0.265625 0.421875 -0.4375q0.265625 -0.21875 0.625 -0.3125q0.359375 -0.109375 0.8125 -0.109375q0.34375 0 0.65625 0.03125q0.3125 0.03125 0.65625 0.109375l0.171875 -1.171875q-0.1875 -0.078125 -0.546875 -0.125q-0.359375 -0.046875 -0.6875 -0.046875z" fill-rule="nonzero"/><path fill="#cfe2f3" d="m477.3787 211.05511l0 0c0 -2.7918549 2.2632446 -5.0551147 5.0551147 -5.0551147l0 0c1.3406982 0 2.6264954 0.5325928 3.5744934 1.4806061c0.94802856 0.94802856 1.4806213 2.2338104 1.4806213 3.5745087l0 0c0 2.79187 -2.2632446 5.0551147 -5.0551147 5.0551147l0 0c-2.79187 0 -5.0551147 -2.2632446 -5.0551147 -5.0551147z" fill-rule="evenodd"/><path stroke="#000000" stroke-width="1.0" stroke-linejoin="round" stroke-linecap="butt" d="m477.3787 211.05511l0 0c0 -2.7918549 2.2632446 -5.0551147 5.0551147 -5.0551147l0 0c1.3406982 0 2.6264954 0.5325928 3.5744934 1.4806061c0.94802856 0.94802856 1.4806213 2.2338104 1.4806213 3.5745087l0 0c0 2.79187 -2.2632446 5.0551147 -5.0551147 5.0551147l0 0c-2.79187 0 -5.0551147 -2.2632446 -5.0551147 -5.0551147z" fill-rule="evenodd"/><path fill="#000000" fill-opacity="0.0" d="m384.86255 202.53806l53.606293 0l0 16.157486l-53.606293 0z" fill-rule="evenodd"/><path fill="#000000" d="m393.48364 213.5418q0 0.171875 -0.0625 0.328125q-0.0625 0.140625 -0.1875 0.265625q-0.203125 0.203125 -0.5625 0.328125q-0.359375 0.109375 -0.84375 0.109375q-0.296875 0 -0.609375 -0.0625q-0.3125 -0.0625 -0.578125 -0.21875q-0.25 -0.15625 -0.421875 -0.40625q-0.171875 -0.265625 -0.203125 -0.640625l-1.203125 0q0 0.453125 0.203125 0.875q0.203125 0.40625 0.59375 0.71875q0.390625 0.328125 0.9375 0.515625q0.5625 0.1875 1.28125 0.1875q0.625 0 1.15625 -0.140625q0.53125 -0.15625 0.90625 -0.421875q0.375 -0.28125 0.578125 -0.65625q0.21875 -0.390625 0.21875 -0.859375q0 -0.4375 -0.1875 -0.765625q-0.1875 -0.328125 -0.53125 -0.59375q-0.359375 -0.234375 -0.875 -0.40625q-0.515625 -0.1875 -1.15625 -0.328125q-0.5 -0.09375 -0.828125 -0.203125q-0.3125 -0.109375 -0.5 -0.234375q-0.203125 -0.125 -0.28125 -0.28125q-0.078125 -0.171875 -0.078125 -0.375q0 -0.203125 0.09375 -0.390625q0.109375 -0.203125 0.296875 -0.34375q0.1875 -0.140625 0.46875 -0.21875q0.296875 -0.09375 0.6875 -0.09375q0.375 0 0.671875 0.109375q0.296875 0.109375 0.5 0.265625q0.203125 0.171875 0.3125 0.390625q0.125 0.21875 0.125 0.453125l1.203125 0q0 -0.46875 -0.203125 -0.859375q-0.1875 -0.40625 -0.546875 -0.703125q-0.375 -0.296875 -0.890625 -0.46875q-0.515625 -0.171875 -1.171875 -0.171875q-0.609375 0 -1.109375 0.171875q-0.5 0.15625 -0.875 0.4375q-0.359375 0.28125 -0.5625 0.65625q-0.203125 0.375 -0.203125 0.796875q0 0.4375 0.1875 0.765625q0.203125 0.328125 0.5625 0.5625q0.359375 0.25 0.84375 0.4375q0.5 0.171875 1.109375 0.296875q0.5 0.09375 0.828125 0.21875q0.328125 0.109375 0.53125 0.25q0.203125 0.15625 0.28125 0.328125q0.09375 0.171875 0.09375 0.375zm6.3106995 1.03125q-0.5625 0 -0.9375 -0.21875q-0.375 -0.234375 -0.609375 -0.59375q-0.234375 -0.359375 -0.34375 -0.8125q-0.09375 -0.453125 -0.09375 -0.921875l0 -0.265625q0 -0.453125 0.09375 -0.90625q0.109375 -0.453125 0.34375 -0.8125q0.234375 -0.359375 0.609375 -0.578125q0.390625 -0.234375 0.9375 -0.234375q0.375 0 0.6875 0.125q0.3125 0.125 0.546875 0.34375q0.21875 0.21875 0.34375 0.5q0.140625 0.28125 0.15625 0.59375l1.140625 0q0 -0.53125 -0.21875 -1.0q-0.21875 -0.46875 -0.59375 -0.8125q-0.375 -0.34375 -0.90625 -0.53125q-0.53125 -0.203125 -1.15625 -0.203125q-0.796875 0 -1.390625 0.296875q-0.59375 0.28125 -1.0 0.75q-0.40625 0.5 -0.609375 1.140625q-0.1875 0.625 -0.1875 1.328125l0 0.265625q0 0.703125 0.1875 1.34375q0.203125 0.640625 0.609375 1.109375q0.40625 0.5 1.0 0.78125q0.59375 0.28125 1.390625 0.28125q0.5625 0 1.078125 -0.1875q0.515625 -0.1875 0.921875 -0.515625q0.390625 -0.3125 0.625 -0.734375q0.234375 -0.4375 0.25 -0.90625l-1.140625 0q-0.015625 0.296875 -0.15625 0.546875q-0.140625 0.25 -0.390625 0.421875q-0.234375 0.203125 -0.546875 0.3125q-0.3125 0.09375 -0.640625 0.09375zm9.623169 -6.328125q-0.765625 0 -1.375 0.34375q-0.59375 0.328125 -1.03125 0.90625l0 -0.171875l-0.0625 -0.953125l-1.140625 0l0 7.046875l1.203125 0l0 -4.515625q0.125 -0.328125 0.296875 -0.59375q0.1875 -0.265625 0.421875 -0.4375q0.265625 -0.21875 0.625 -0.3125q0.359375 -0.109375 0.8125 -0.109375q0.34375 0 0.65625 0.03125q0.3125 0.03125 0.65625 0.109375l0.171875 -1.171875q-0.1875 -0.078125 -0.546875 -0.125q-0.359375 -0.046875 -0.6875 -0.046875zm3.5763245 0.125l0 1.046875l2.390625 0l0 4.953125l-2.390625 0l0 1.046875l5.890625 0l0 -1.046875l-2.296875 0l0 -6.0l-3.59375 0zm2.234375 -1.84375q0 0.296875 0.171875 0.5q0.1875 0.1875 0.546875 0.1875q0.359375 0 0.53125 -0.1875q0.1875 -0.203125 0.1875 -0.5q0 -0.15625 -0.046875 -0.296875q-0.046875 -0.140625 -0.15625 -0.234375q-0.078125 -0.078125 -0.21875 -0.125q-0.125 -0.046875 -0.296875 -0.046875q-0.171875 0 -0.3125 0.046875q-0.125 0.046875 -0.203125 0.125q-0.109375 0.109375 -0.15625 0.25q-0.046875 0.125 -0.046875 0.28125zm5.560669 11.59375l1.203125 0l0 -3.375q0.125 0.140625 0.28125 0.265625q0.15625 0.109375 0.3125 0.21875q0.28125 0.15625 0.625 0.234375q0.359375 0.078125 0.765625 0.078125q0.65625 0 1.171875 -0.265625q0.515625 -0.28125 0.875 -0.75q0.34375 -0.484375 0.53125 -1.140625q0.1875 -0.65625 0.1875 -1.40625l0 -0.140625q0 -0.78125 -0.1875 -1.4375q-0.1875 -0.671875 -0.53125 -1.140625q-0.359375 -0.484375 -0.875 -0.75q-0.515625 -0.265625 -1.203125 -0.265625q-0.375 0 -0.71875 0.078125q-0.328125 0.078125 -0.59375 0.234375q-0.203125 0.109375 -0.375 0.265625q-0.171875 0.140625 -0.3125 0.3125l-0.0625 -0.765625l-1.09375 0l0 9.75zm4.75 -6.28125l0 0.140625q0 0.515625 -0.125 0.984375q-0.109375 0.46875 -0.34375 0.8125q-0.234375 0.359375 -0.609375 0.578125q-0.359375 0.203125 -0.859375 0.203125q-0.3125 0 -0.5625 -0.078125q-0.25 -0.078125 -0.46875 -0.203125q-0.171875 -0.125 -0.328125 -0.28125q-0.140625 -0.171875 -0.25 -0.375l0 -3.390625q0.125 -0.21875 0.28125 -0.390625q0.171875 -0.1875 0.375 -0.3125q0.1875 -0.125 0.421875 -0.1875q0.25 -0.078125 0.53125 -0.078125q0.5 0 0.859375 0.21875q0.375 0.203125 0.609375 0.5625q0.234375 0.34375 0.34375 0.8125q0.125 0.46875 0.125 0.984375zm6.1075745 -5.171875l-1.21875 0l0 1.703125l-1.84375 0l0 0.9375l1.84375 0l0 3.828125q0 0.640625 0.171875 1.109375q0.1875 0.453125 0.484375 0.75q0.296875 0.28125 0.703125 0.421875q0.40625 0.125 0.875 0.125q0.28125 0 0.5625 -0.03125q0.28125 -0.015625 0.53125 -0.0625q0.265625 -0.046875 0.46875 -0.109375q0.21875 -0.078125 0.375 -0.171875l-0.171875 -0.84375q-0.109375 0.015625 -0.28125 0.0625q-0.171875 0.03125 -0.375 0.0625q-0.203125 0.03125 -0.40625 0.0625q-0.203125 0.015625 -0.40625 0.015625q-0.265625 0 -0.5 -0.0625q-0.234375 -0.0625 -0.421875 -0.234375q-0.1875 -0.15625 -0.296875 -0.421875q-0.09375 -0.265625 -0.09375 -0.671875l0 -3.828125l2.6875 0l0 -0.9375l-2.6875 0l0 -1.703125z" fill-rule="nonzero"/><path fill="#000000" fill-opacity="0.0" d="m374.80673 216.27563c-0.3986206 0 -0.7217407 -0.32313538 -0.7217407 -0.721756l0 -2.8871918c0 -0.3986206 -0.32315063 -0.721756 -0.72177124 -0.721756c0.3986206 0 0.72177124 -0.32315063 0.72177124 -0.721756l0 -2.887207l0 0c0 -0.39860535 0.32312012 -0.721756 0.7217407 -0.721756l7.2232056 0c0.19143677 0 0.375 0.076049805 0.510376 0.21141052c0.13534546 0.13534546 0.21139526 0.31892395 0.21139526 0.51034546l0 2.887207c0 0.39860535 0.32312012 0.721756 0.7217407 0.721756c-0.3986206 0 -0.7217407 0.32313538 -0.7217407 0.721756l0 2.8871918c0 0.3986206 -0.32315063 0.721756 -0.72177124 0.721756z" fill-rule="evenodd"/><path fill="#000000" fill-opacity="0.0" d="m374.80673 216.27563c-0.3986206 0 -0.7217407 -0.32313538 -0.7217407 -0.721756l0 -2.8871918c0 -0.3986206 -0.32315063 -0.721756 -0.72177124 -0.721756c0.3986206 0 0.72177124 -0.32315063 0.72177124 -0.721756l0 -2.887207l0 0c0 -0.39860535 0.32312012 -0.721756 0.7217407 -0.721756m7.2232056 0c0.19143677 0 0.375 0.076049805 0.510376 0.21141052c0.13534546 0.13534546 0.21139526 0.31892395 0.21139526 0.51034546l0 2.887207c0 0.39860535 0.32312012 0.721756 0.7217407 0.721756c-0.3986206 0 -0.7217407 0.32313538 -0.7217407 0.721756l0 2.8871918c0 0.3986206 -0.32315063 0.721756 -0.72177124 0.721756" fill-rule="evenodd"/><path stroke="#000000" stroke-width="1.0" stroke-linejoin="round" stroke-linecap="butt" d="m374.80673 216.27563c-0.3986206 0 -0.7217407 -0.32313538 -0.7217407 -0.721756l0 -2.8871918c0 -0.3986206 -0.32315063 -0.721756 -0.72177124 -0.721756c0.3986206 0 0.72177124 -0.32315063 0.72177124 -0.721756l0 -2.887207l0 0c0 -0.39860535 0.32312012 -0.721756 0.7217407 -0.721756m7.2232056 0c0.19143677 0 0.375 0.076049805 0.510376 0.21141052c0.13534546 0.13534546 0.21139526 0.31892395 0.21139526 0.51034546l0 2.887207c0 0.39860535 0.32312012 0.721756 0.7217407 0.721756c-0.3986206 0 -0.7217407 0.32313538 -0.7217407 0.721756l0 2.8871918c0 0.3986206 -0.32315063 0.721756 -0.72177124 0.721756" fill-rule="evenodd"/><path fill="#000000" fill-opacity="0.0" d="m5.304462 6.32021l32.503937 0l0 16.15748l-32.503937 0z" fill-rule="evenodd"/><path fill="#000000" d="m19.073872 17.214575l0.546875 1.984375l1.921875 0l-3.03125 -9.46875l-1.671875 0l-3.093751 9.46875l1.921875 0l0.56250095 -1.984375l2.84375 0zm-2.390625 -1.546875l0.984375 -3.484375l0.96875 3.484375l-1.953125 0zm7.623184 2.484375q0 0.5 0.328125 0.84375q0.34375 0.328125 0.921875 0.328125q0.578125 0 0.921875 -0.328125q0.34375 -0.34375 0.34375 -0.84375q0 -0.515625 -0.34375 -0.859375q-0.328125 -0.34375 -0.921875 -0.34375q-0.59375 0 -0.921875 0.359375q-0.328125 0.34375 -0.328125 0.84375z" fill-rule="nonzero"/><path fill="#000000" fill-opacity="0.0" d="m213.30446 6.32021l32.503937 0l0 16.15748l-32.503937 0z" fill-rule="evenodd"/><path fill="#000000" d="m222.402 19.19895l3.453125 0q0.78125 0 1.40625 -0.171875q0.625 -0.171875 1.0625 -0.53125q0.4375 -0.34375 0.671875 -0.859375q0.234375 -0.53125 0.234375 -1.21875q0 -0.359375 -0.09375 -0.6875q-0.09375 -0.34375 -0.296875 -0.625q-0.1875 -0.265625 -0.46875 -0.46875q-0.265625 -0.203125 -0.734375 -0.328125l0 -0.015625q0.234375 -0.078125 0.421875 -0.203125q0.203125 -0.140625 0.359375 -0.296875q0.296875 -0.28125 0.4375 -0.65625q0.140625 -0.390625 0.15625 -0.828125q0 -0.65625 -0.25 -1.140625q-0.234375 -0.5 -0.6875 -0.8125q-0.453125 -0.3125 -1.09375 -0.46875q-0.625 -0.15625 -1.40625 -0.15625l-3.171875 0l0 9.46875zm1.828125 -4.171875l1.703125 0q0.390625 0 0.671875 0.109375q0.28125 0.09375 0.453125 0.265625q0.171875 0.171875 0.25 0.4375q0.09375 0.25 0.09375 0.5625q0 0.3125 -0.109375 0.5625q-0.109375 0.25 -0.3125 0.421875q-0.203125 0.15625 -0.484375 0.25q-0.28125 0.078125 -0.640625 0.078125l-1.625 0l0 -2.6875zm0 -1.328125l0 -2.484375l1.359375 0q0.4375 0 0.765625 0.09375q0.328125 0.09375 0.53125 0.296875q0.140625 0.140625 0.21875 0.359375q0.078125 0.21875 0.078125 0.5q0 0.265625 -0.09375 0.484375q-0.078125 0.21875 -0.25 0.359375q-0.1875 0.203125 -0.515625 0.296875q-0.3125 0.09375 -0.734375 0.09375l-1.359375 0zm8.076309 4.453125q0 0.5 0.328125 0.84375q0.34375 0.328125 0.921875 0.328125q0.578125 0 0.921875 -0.328125q0.34375 -0.34375 0.34375 -0.84375q0 -0.515625 -0.34375 -0.859375q-0.328125 -0.34375 -0.921875 -0.34375q-0.59375 0 -0.921875 0.359375q-0.328125 0.34375 -0.328125 0.84375z" fill-rule="nonzero"/><path fill="#000000" fill-opacity="0.0" d="m421.30447 6.32021l32.503937 0l0 16.15748l-32.503937 0z" fill-rule="evenodd"/><path fill="#000000" d="m436.99576 16.2302l-1.828125 0q-0.03125 0.4375 -0.15625 0.75q-0.109375 0.296875 -0.3125 0.484375q-0.203125 0.203125 -0.5 0.296875q-0.28125 0.078125 -0.625 0.078125q-0.28125 0 -0.5 -0.0625q-0.203125 -0.0625 -0.390625 -0.1875q-0.15625 -0.109375 -0.28125 -0.28125q-0.125 -0.1875 -0.21875 -0.40625q-0.125 -0.34375 -0.1875 -0.78125q-0.0625 -0.453125 -0.0625 -1.015625l0 -1.28125q0 -0.421875 0.03125 -0.78125q0.046875 -0.359375 0.125 -0.65625q0.109375 -0.390625 0.296875 -0.671875q0.1875 -0.296875 0.453125 -0.453125q0.15625 -0.09375 0.34375 -0.140625q0.1875 -0.046875 0.390625 -0.046875q0.40625 0 0.6875 0.109375q0.296875 0.109375 0.5 0.3125q0.1875 0.21875 0.28125 0.546875q0.109375 0.3125 0.125 0.734375l1.828125 0q-0.0625 -0.75 -0.3125 -1.328125q-0.25 -0.59375 -0.671875 -1.015625q-0.4375 -0.40625 -1.046875 -0.625q-0.609375 -0.21875 -1.390625 -0.21875q-0.515625 0 -0.984375 0.140625q-0.453125 0.125 -0.84375 0.375q-0.421875 0.28125 -0.765625 0.71875q-0.328125 0.421875 -0.546875 0.953125q-0.171875 0.453125 -0.265625 0.96875q-0.09375 0.515625 -0.09375 1.078125l0 1.28125q0 0.609375 0.09375 1.15625q0.109375 0.546875 0.296875 1.0q0.1875 0.453125 0.46875 0.84375q0.296875 0.375 0.65625 0.640625q0.390625 0.28125 0.890625 0.4375q0.5 0.15625 1.09375 0.15625q0.734375 0 1.34375 -0.21875q0.609375 -0.21875 1.0625 -0.625q0.4375 -0.40625 0.703125 -0.96875q0.265625 -0.578125 0.3125 -1.296875zm3.310669 1.921875q0 0.5 0.328125 0.84375q0.34375 0.328125 0.921875 0.328125q0.578125 0 0.921875 -0.328125q0.34375 -0.34375 0.34375 -0.84375q0 -0.515625 -0.34375 -0.859375q-0.328125 -0.34375 -0.921875 -0.34375q-0.59375 0 -0.921875 0.359375q-0.328125 0.34375 -0.328125 0.84375z" fill-rule="nonzero"/></g></svg>