<svg width="500" height="500" viewBox="0 0 500 500" fill="none" xmlns="http://www.w3.org/2000/svg">
<g clip-path="url(#clip0_233_1013)">
<rect width="500" height="500" rx="36" fill="#171415"/>
<g filter="url(#filter0_f_233_1013)">
<circle cx="110.326" cy="-186.112" r="256.388" fill="#6737FD" fill-opacity="0.5"/>
</g>
<g opacity="0.4" filter="url(#filter1_f_233_1013)">
<path d="M150.202 884.639C-59.5621 823.973 -42.4815 652.468 107.517 561.953C257.516 471.439 529.276 405.287 739.04 465.952C842.989 496.015 1043.19 520.705 1092 601.496C1141.68 683.739 929.828 769.239 854.161 814.899C704.163 905.414 359.967 945.305 150.202 884.639Z" fill="url(#paint0_linear_233_1013)"/>
</g>
<path fill-rule="evenodd" clip-rule="evenodd" d="M176.298 153.872C177.396 154.623 178.052 155.86 178.052 157.182V224.728C178.052 228.31 173.679 230.105 171.118 227.575L140.193 197.016C139.429 196.261 139 195.237 139 194.168V185.343V136.03C139 132.786 142.677 130.877 145.373 132.72L176.298 153.872ZM253.139 301.522C251.56 303.129 248.959 303.148 247.356 301.564L187.548 242.458C186.785 241.703 186.356 240.679 186.356 239.611V168.314C186.356 165.071 190.033 163.161 192.728 165.004L217.103 181.673C217.782 182.137 218.588 182.386 219.413 182.386H281.434C282.259 182.386 283.065 182.137 283.744 181.673L307.543 165.393C310.238 163.55 313.916 165.46 313.916 168.703V238.022C313.916 239.069 313.503 240.075 312.766 240.826L253.139 301.522ZM359.849 194.388C360.587 193.638 361 192.631 361 191.583V185.93V136.615C361 133.373 357.323 131.463 354.628 133.305L323.978 154.261C322.879 155.012 322.223 156.25 322.223 157.571V222.777C322.223 226.387 326.656 228.17 329.199 225.582L359.849 194.388ZM140.277 331.497C139.462 330.737 139 329.678 139 328.569V278.384C139 274.817 143.341 273.015 145.911 275.515L174.557 303.384C175.342 304.147 175.78 305.192 175.773 306.28L175.446 355.007C175.422 358.52 171.18 360.317 168.597 357.908L140.277 331.497ZM251.963 312.726C251.722 312.969 251.426 313.147 251.101 313.248C250.891 313.312 250.675 313.361 250.458 313.394C250.363 313.409 250.267 313.417 250.171 313.419C249.898 313.419 249.628 313.366 249.376 313.263C249.124 313.159 248.896 313.008 248.703 312.817L233.309 297.607C230.748 295.077 226.376 296.872 226.376 300.454V343.67C226.376 344.748 226.813 345.781 227.589 346.537L247.405 365.844C249.006 367.404 251.58 367.382 253.154 365.796L271.067 347.741C271.813 346.989 272.231 345.976 272.231 344.922V302.004C272.231 298.393 267.798 296.611 265.256 299.199L251.963 312.726ZM331.051 287.447C328.511 290.004 324.116 288.239 324.092 284.652L323.802 241.377C323.795 240.32 324.208 239.303 324.952 238.545L354.024 208.955C356.567 206.367 361 208.149 361 211.76V255.664C361 256.72 360.581 257.733 359.833 258.486L331.051 287.447ZM176.181 242.832C176.189 241.755 175.759 240.719 174.989 239.958L145.933 211.248C143.373 208.718 139 210.513 139 214.095V258.595C139 259.674 139.438 260.708 140.216 261.464L168.979 289.441C171.539 291.932 175.865 290.152 175.889 286.598L176.181 242.832ZM324.208 304.615C324.201 303.55 324.621 302.526 325.375 301.767L354.039 272.93C356.589 270.365 360.998 272.153 360.998 275.752V329.153C360.998 330.262 360.536 331.321 359.721 332.082L331.394 358.493C328.81 360.902 324.568 359.104 324.545 355.591L324.208 304.615Z" fill="white"/>
</g>
<defs>
<filter id="filter0_f_233_1013" x="-441.766" y="-738.203" width="1104.18" height="1104.18" filterUnits="userSpaceOnUse" color-interpolation-filters="sRGB">
<feFlood flood-opacity="0" result="BackgroundImageFix"/>
<feBlend mode="normal" in="SourceGraphic" in2="BackgroundImageFix" result="shape"/>
<feGaussianBlur stdDeviation="147.852" result="effect1_foregroundBlur_233_1013"/>
</filter>
<filter id="filter1_f_233_1013" x="-262.571" y="186.183" width="1618.38" height="983.806" filterUnits="userSpaceOnUse" color-interpolation-filters="sRGB">
<feFlood flood-opacity="0" result="BackgroundImageFix"/>
<feBlend mode="normal" in="SourceGraphic" in2="BackgroundImageFix" result="shape"/>
<feGaussianBlur stdDeviation="128.174" result="effect1_foregroundBlur_233_1013"/>
</filter>
<linearGradient id="paint0_linear_233_1013" x1="-28.3763" y1="745.479" x2="414.128" y2="172.649" gradientUnits="userSpaceOnUse">
<stop stop-color="#DC5C72"/>
<stop offset="1" stop-color="#9F4FDA"/>
</linearGradient>
<clipPath id="clip0_233_1013">
<rect width="500" height="500" rx="36" fill="white"/>
</clipPath>
</defs>
</svg>
