<?xml version="1.0" encoding="UTF-8" standalone="no"?>
<!DOCTYPE svg PUBLIC "-//W3C//DTD SVG 1.1//EN"
 "http://www.w3.org/Graphics/SVG/1.1/DTD/svg11.dtd">
<!-- Generated by graphviz version 2.49.3 (0)
 -->
<!-- Pages: 1 -->
<svg width="170pt" height="211pt"
 viewBox="0.00 0.00 170.14 211.00" xmlns="http://www.w3.org/2000/svg" xmlns:xlink="http://www.w3.org/1999/xlink">
<g id="graph0" class="graph" transform="scale(1 1) rotate(0) translate(4 207)">
<polygon fill="white" stroke="transparent" points="-4,4 -4,-207 166.14,-207 166.14,4 -4,4"/>
<text text-anchor="middle" x="81.07" y="-7.8" font-family="Times,serif" font-size="14.00">Stacks Dependency Graph</text>
<!-- stack&#45;b -->
<g id="node1" class="node">
<title>stack&#45;b</title>
<ellipse fill="none" stroke="black" cx="36.4" cy="-113" rx="36.29" ry="18"/>
<text text-anchor="middle" x="36.4" y="-109.3" font-family="Times,serif" font-size="14.00">stack&#45;b</text>
</g>
<!-- stack&#45;a -->
<g id="node2" class="node">
<title>stack&#45;a</title>
<ellipse fill="none" stroke="black" cx="81.4" cy="-41" rx="36" ry="18"/>
<text text-anchor="middle" x="81.4" y="-37.3" font-family="Times,serif" font-size="14.00">stack&#45;a</text>
</g>
<!-- stack&#45;b&#45;&gt;stack&#45;a -->
<g id="edge1" class="edge">
<title>stack&#45;b&#45;&gt;stack&#45;a</title>
<path fill="none" stroke="red" d="M47.06,-95.41C52.5,-86.95 59.22,-76.49 65.28,-67.08"/>
<polygon fill="red" stroke="red" points="68.35,-68.77 70.81,-58.47 62.46,-64.99 68.35,-68.77"/>
</g>
<!-- stack&#45;c -->
<g id="node3" class="node">
<title>stack&#45;c</title>
<ellipse fill="none" stroke="black" cx="126.4" cy="-113" rx="36" ry="18"/>
<text text-anchor="middle" x="126.4" y="-109.3" font-family="Times,serif" font-size="14.00">stack&#45;c</text>
</g>
<!-- stack&#45;c&#45;&gt;stack&#45;a -->
<g id="edge2" class="edge">
<title>stack&#45;c&#45;&gt;stack&#45;a</title>
<path fill="none" stroke="red" d="M115.96,-95.76C110.53,-87.32 103.77,-76.8 97.67,-67.31"/>
<polygon fill="red" stroke="red" points="100.44,-65.15 92.09,-58.63 94.55,-68.94 100.44,-65.15"/>
</g>
<!-- stack&#45;d -->
<g id="node4" class="node">
<title>stack&#45;d</title>
<ellipse fill="none" stroke="black" cx="81.4" cy="-185" rx="36.29" ry="18"/>
<text text-anchor="middle" x="81.4" y="-181.3" font-family="Times,serif" font-size="14.00">stack&#45;d</text>
</g>
<!-- stack&#45;d&#45;&gt;stack&#45;b -->
<g id="edge3" class="edge">
<title>stack&#45;d&#45;&gt;stack&#45;b</title>
<path fill="none" stroke="red" d="M70.73,-167.41C65.3,-158.95 58.57,-148.49 52.52,-139.08"/>
<polygon fill="red" stroke="red" points="55.34,-136.99 46.98,-130.47 49.45,-140.77 55.34,-136.99"/>
</g>
<!-- stack&#45;d&#45;&gt;stack&#45;c -->
<g id="edge4" class="edge">
<title>stack&#45;d&#45;&gt;stack&#45;c</title>
<path fill="none" stroke="red" d="M92.06,-167.41C97.5,-158.95 104.22,-148.49 110.28,-139.08"/>
<polygon fill="red" stroke="red" points="113.35,-140.77 115.81,-130.47 107.46,-136.99 113.35,-140.77"/>
</g>
</g>
</svg>
