<?xml version="1.0" encoding="UTF-8" standalone="no"?>
<!DOCTYPE svg PUBLIC "-//W3C//DTD SVG 1.1//EN"
 "http://www.w3.org/Graphics/SVG/1.1/DTD/svg11.dtd">
<!-- Generated by graphviz version 2.49.3 (0)
 -->
<!-- Pages: 1 -->
<svg width="421pt" height="211pt"
 viewBox="0.00 0.00 421.00 211.00" xmlns="http://www.w3.org/2000/svg" xmlns:xlink="http://www.w3.org/1999/xlink">
<g id="graph0" class="graph" transform="scale(1 1) rotate(0) translate(4 207)">
<polygon fill="white" stroke="transparent" points="-4,4 -4,-207 417,-207 417,4 -4,4"/>
<text text-anchor="middle" x="206.5" y="-7.8" font-family="Times,serif" font-size="14.00">Failure Mode: stack&#45;b fails (green=success, red=failed, yellow=aborted)</text>
<!-- stack&#45;a -->
<g id="node1" class="node">
<title>stack&#45;a</title>
<ellipse fill="none" stroke="green" stroke-width="2" cx="206.82" cy="-41" rx="36" ry="18"/>
<text text-anchor="middle" x="206.82" y="-37.3" font-family="Times,serif" font-size="14.00">stack&#45;a</text>
</g>
<!-- stack&#45;b -->
<g id="node2" class="node">
<title>stack&#45;b</title>
<ellipse fill="none" stroke="red" stroke-width="2" cx="161.82" cy="-113" rx="36.29" ry="18"/>
<text text-anchor="middle" x="161.82" y="-109.3" font-family="Times,serif" font-size="14.00">stack&#45;b</text>
</g>
<!-- stack&#45;b&#45;&gt;stack&#45;a -->
<g id="edge1" class="edge">
<title>stack&#45;b&#45;&gt;stack&#45;a</title>
<path fill="none" stroke="red" d="M172.49,-95.41C177.93,-86.95 184.65,-76.49 190.7,-67.08"/>
<polygon fill="red" stroke="red" points="193.77,-68.77 196.24,-58.47 187.89,-64.99 193.77,-68.77"/>
</g>
<!-- stack&#45;c -->
<g id="node3" class="node">
<title>stack&#45;c</title>
<ellipse fill="none" stroke="green" stroke-width="2" cx="251.82" cy="-113" rx="36" ry="18"/>
<text text-anchor="middle" x="251.82" y="-109.3" font-family="Times,serif" font-size="14.00">stack&#45;c</text>
</g>
<!-- stack&#45;c&#45;&gt;stack&#45;a -->
<g id="edge2" class="edge">
<title>stack&#45;c&#45;&gt;stack&#45;a</title>
<path fill="none" stroke="red" d="M241.39,-95.76C235.96,-87.32 229.2,-76.8 223.1,-67.31"/>
<polygon fill="red" stroke="red" points="225.87,-65.15 217.52,-58.63 219.98,-68.94 225.87,-65.15"/>
</g>
<!-- stack&#45;d -->
<g id="node4" class="node">
<title>stack&#45;d</title>
<ellipse fill="none" stroke="darkgoldenrod" stroke-width="2" cx="206.82" cy="-185" rx="36.29" ry="18"/>
<text text-anchor="middle" x="206.82" y="-181.3" font-family="Times,serif" font-size="14.00">stack&#45;d</text>
</g>
<!-- stack&#45;d&#45;&gt;stack&#45;b -->
<g id="edge3" class="edge">
<title>stack&#45;d&#45;&gt;stack&#45;b</title>
<path fill="none" stroke="red" d="M196.16,-167.41C190.72,-158.95 184,-148.49 177.95,-139.08"/>
<polygon fill="red" stroke="red" points="180.76,-136.99 172.41,-130.47 174.88,-140.77 180.76,-136.99"/>
</g>
<!-- stack&#45;d&#45;&gt;stack&#45;c -->
<g id="edge4" class="edge">
<title>stack&#45;d&#45;&gt;stack&#45;c</title>
<path fill="none" stroke="red" d="M217.49,-167.41C222.93,-158.95 229.65,-148.49 235.7,-139.08"/>
<polygon fill="red" stroke="red" points="238.77,-140.77 241.24,-130.47 232.89,-136.99 238.77,-140.77"/>
</g>
</g>
</svg>
