<?xml version="1.0" encoding="UTF-8" standalone="no"?>
<!DOCTYPE svg PUBLIC "-//W3C//DTD SVG 1.1//EN"
 "http://www.w3.org/Graphics/SVG/1.1/DTD/svg11.dtd">
<!-- Generated by graphviz version 2.49.3 (0)
 -->
<!-- Pages: 1 -->
<svg width="334pt" height="211pt"
 viewBox="0.00 0.00 334.00 211.00" xmlns="http://www.w3.org/2000/svg" xmlns:xlink="http://www.w3.org/1999/xlink">
<g id="graph0" class="graph" transform="scale(1 1) rotate(0) translate(4 207)">
<polygon fill="white" stroke="transparent" points="-4,4 -4,-207 330,-207 330,4 -4,4"/>
<text text-anchor="middle" x="163" y="-7.8" font-family="Times,serif" font-size="14.00">Failure Mode: stack&#45;a fails (red=failed, yellow=aborted)</text>
<!-- stack&#45;a -->
<g id="node1" class="node">
<title>stack&#45;a</title>
<ellipse fill="none" stroke="red" stroke-width="2" cx="163.32" cy="-41" rx="36" ry="18"/>
<text text-anchor="middle" x="163.32" y="-37.3" font-family="Times,serif" font-size="14.00">stack&#45;a</text>
</g>
<!-- stack&#45;b -->
<g id="node2" class="node">
<title>stack&#45;b</title>
<ellipse fill="none" stroke="darkgoldenrod" stroke-width="2" cx="118.32" cy="-113" rx="36.29" ry="18"/>
<text text-anchor="middle" x="118.32" y="-109.3" font-family="Times,serif" font-size="14.00">stack&#45;b</text>
</g>
<!-- stack&#45;b&#45;&gt;stack&#45;a -->
<g id="edge1" class="edge">
<title>stack&#45;b&#45;&gt;stack&#45;a</title>
<path fill="none" stroke="red" d="M128.99,-95.41C134.43,-86.95 141.15,-76.49 147.2,-67.08"/>
<polygon fill="red" stroke="red" points="150.27,-68.77 152.74,-58.47 144.39,-64.99 150.27,-68.77"/>
</g>
<!-- stack&#45;c -->
<g id="node3" class="node">
<title>stack&#45;c</title>
<ellipse fill="none" stroke="darkgoldenrod" stroke-width="2" cx="208.32" cy="-113" rx="36" ry="18"/>
<text text-anchor="middle" x="208.32" y="-109.3" font-family="Times,serif" font-size="14.00">stack&#45;c</text>
</g>
<!-- stack&#45;c&#45;&gt;stack&#45;a -->
<g id="edge2" class="edge">
<title>stack&#45;c&#45;&gt;stack&#45;a</title>
<path fill="none" stroke="red" d="M197.89,-95.76C192.46,-87.32 185.7,-76.8 179.6,-67.31"/>
<polygon fill="red" stroke="red" points="182.37,-65.15 174.02,-58.63 176.48,-68.94 182.37,-65.15"/>
</g>
<!-- stack&#45;d -->
<g id="node4" class="node">
<title>stack&#45;d</title>
<ellipse fill="none" stroke="darkgoldenrod" stroke-width="2" cx="163.32" cy="-185" rx="36.29" ry="18"/>
<text text-anchor="middle" x="163.32" y="-181.3" font-family="Times,serif" font-size="14.00">stack&#45;d</text>
</g>
<!-- stack&#45;d&#45;&gt;stack&#45;b -->
<g id="edge3" class="edge">
<title>stack&#45;d&#45;&gt;stack&#45;b</title>
<path fill="none" stroke="red" d="M152.66,-167.41C147.22,-158.95 140.5,-148.49 134.45,-139.08"/>
<polygon fill="red" stroke="red" points="137.26,-136.99 128.91,-130.47 131.38,-140.77 137.26,-136.99"/>
</g>
<!-- stack&#45;d&#45;&gt;stack&#45;c -->
<g id="edge4" class="edge">
<title>stack&#45;d&#45;&gt;stack&#45;c</title>
<path fill="none" stroke="red" d="M173.99,-167.41C179.43,-158.95 186.15,-148.49 192.2,-139.08"/>
<polygon fill="red" stroke="red" points="195.27,-140.77 197.74,-130.47 189.39,-136.99 195.27,-140.77"/>
</g>
</g>
</svg>
