<?xml version="1.0" encoding="UTF-8" standalone="no"?>
<!DOCTYPE svg PUBLIC "-//W3C//DTD SVG 1.1//EN"
 "http://www.w3.org/Graphics/SVG/1.1/DTD/svg11.dtd">
<!-- Generated by graphviz version 2.49.3 (0)
 -->
<!-- Pages: 1 -->
<svg width="256pt" height="211pt"
 viewBox="0.00 0.00 256.00 211.00" xmlns="http://www.w3.org/2000/svg" xmlns:xlink="http://www.w3.org/1999/xlink">
<g id="graph0" class="graph" transform="scale(1 1) rotate(0) translate(4 207)">
<polygon fill="white" stroke="transparent" points="-4,4 -4,-207 252,-207 252,4 -4,4"/>
<text text-anchor="middle" x="124" y="-7.8" font-family="Times,serif" font-size="14.00">Failure Mode: Overall Dependency Graph</text>
<!-- stack&#45;b -->
<g id="node1" class="node">
<title>stack&#45;b</title>
<ellipse fill="none" stroke="black" cx="79.32" cy="-113" rx="36.29" ry="18"/>
<text text-anchor="middle" x="79.32" y="-109.3" font-family="Times,serif" font-size="14.00">stack&#45;b</text>
</g>
<!-- stack&#45;a -->
<g id="node2" class="node">
<title>stack&#45;a</title>
<ellipse fill="none" stroke="black" cx="124.32" cy="-41" rx="36" ry="18"/>
<text text-anchor="middle" x="124.32" y="-37.3" font-family="Times,serif" font-size="14.00">stack&#45;a</text>
</g>
<!-- stack&#45;b&#45;&gt;stack&#45;a -->
<g id="edge1" class="edge">
<title>stack&#45;b&#45;&gt;stack&#45;a</title>
<path fill="none" stroke="red" d="M89.99,-95.41C95.43,-86.95 102.15,-76.49 108.2,-67.08"/>
<polygon fill="red" stroke="red" points="111.27,-68.77 113.74,-58.47 105.39,-64.99 111.27,-68.77"/>
</g>
<!-- stack&#45;c -->
<g id="node3" class="node">
<title>stack&#45;c</title>
<ellipse fill="none" stroke="black" cx="169.32" cy="-113" rx="36" ry="18"/>
<text text-anchor="middle" x="169.32" y="-109.3" font-family="Times,serif" font-size="14.00">stack&#45;c</text>
</g>
<!-- stack&#45;c&#45;&gt;stack&#45;a -->
<g id="edge2" class="edge">
<title>stack&#45;c&#45;&gt;stack&#45;a</title>
<path fill="none" stroke="red" d="M158.89,-95.76C153.46,-87.32 146.7,-76.8 140.6,-67.31"/>
<polygon fill="red" stroke="red" points="143.37,-65.15 135.02,-58.63 137.48,-68.94 143.37,-65.15"/>
</g>
<!-- stack&#45;d -->
<g id="node4" class="node">
<title>stack&#45;d</title>
<ellipse fill="none" stroke="black" cx="124.32" cy="-185" rx="36.29" ry="18"/>
<text text-anchor="middle" x="124.32" y="-181.3" font-family="Times,serif" font-size="14.00">stack&#45;d</text>
</g>
<!-- stack&#45;d&#45;&gt;stack&#45;b -->
<g id="edge3" class="edge">
<title>stack&#45;d&#45;&gt;stack&#45;b</title>
<path fill="none" stroke="red" d="M113.66,-167.41C108.22,-158.95 101.5,-148.49 95.45,-139.08"/>
<polygon fill="red" stroke="red" points="98.26,-136.99 89.91,-130.47 92.38,-140.77 98.26,-136.99"/>
</g>
<!-- stack&#45;d&#45;&gt;stack&#45;c -->
<g id="edge4" class="edge">
<title>stack&#45;d&#45;&gt;stack&#45;c</title>
<path fill="none" stroke="red" d="M134.99,-167.41C140.43,-158.95 147.15,-148.49 153.2,-139.08"/>
<polygon fill="red" stroke="red" points="156.27,-140.77 158.74,-130.47 150.39,-136.99 156.27,-140.77"/>
</g>
</g>
</svg>
