
<svg xmlns="http://www.w3.org/2000/svg" width="95" height="11" fill="none"><path fill="#fff" d="M0 .001v5.623C0 8.594 2.158 11 5.3 11h.38V8.444a2.826 2.826 0 0 1-2.84-2.82V4.196h2.84V1.789H2.84V0H0Zm12.396.245c-3.142 0-5.679 2.407-5.679 5.378 0 2.97 2.537 5.377 5.68 5.377 2.498 0 4.618-1.523 5.376-3.648H14.63a2.832 2.832 0 0 1-2.234 1.091 2.86 2.86 0 0 1-2.669-1.843h8.254c.057-.32.095-.639.095-.977 0-2.97-2.537-5.378-5.68-5.378Zm-2.669 4.4a2.86 2.86 0 0 1 2.67-1.843c1.211 0 2.252.771 2.669 1.843H9.727Zm9.628.978V10.7h2.84V5.624c0-1.56 1.268-2.82 2.84-2.82V.245h-.38c-3.142 0-5.3 2.407-5.3 5.378Zm6.637 0V10.7h2.84V5.624c0-1.56 1.268-2.82 2.839-2.82V.245h-.379c-3.142 0-5.3 2.407-5.3 5.378ZM37.963.246c-3.105 0-5.623 2.407-5.623 5.378 0 2.97 2.518 5.377 5.623 5.377 1.23 0 2.328-.62 2.972-1.56v1.26h2.65V5.623c0-2.97-2.518-5.378-5.622-5.378Zm.056 8.198a2.826 2.826 0 0 1-2.84-2.82c0-1.56 1.27-2.82 2.84-2.82 1.572 0 2.84 1.26 2.84 2.82 0 1.56-1.268 2.82-2.84 2.82Zm7.273-2.82V10.7h2.84V5.624c0-1.56.7-2.82 2.271-2.82 1.572 0 2.272 1.26 2.272 2.82V10.7h2.84V5.624c0-1.56.7-2.82 2.271-2.82 1.572 0 2.272 1.26 2.272 2.82V10.7h2.84V5.624c0-2.97-1.97-5.378-5.112-5.378a4.815 4.815 0 0 0-3.691 1.711 4.815 4.815 0 0 0-3.692-1.71c-3.142 0-5.11 2.406-5.11 5.377ZM69.742.246c-3.105 0-5.623 2.407-5.623 5.378 0 2.97 2.518 5.377 5.623 5.377 1.23 0 2.328-.62 2.972-1.56v1.26h2.65V5.623c0-2.97-2.518-5.378-5.622-5.378Zm.056 8.198a2.826 2.826 0 0 1-2.84-2.82c0-1.56 1.27-2.82 2.84-2.82 1.572 0 2.84 1.26 2.84 2.82 0 1.56-1.268 2.82-2.84 2.82ZM89.32.246c-3.142 0-5.678 2.407-5.678 5.378 0 2.97 2.536 5.377 5.679 5.377 2.499 0 4.619-1.523 5.376-3.648h-3.142a2.833 2.833 0 0 1-2.234 1.091 2.86 2.86 0 0 1-2.67-1.843h8.254c.057-.32.095-.639.095-.977 0-2.97-2.537-5.378-5.68-5.378Zm-2.668 4.4a2.86 2.86 0 0 1 2.669-1.843c1.211 0 2.252.771 2.669 1.843h-5.338ZM76.794.001v5.623c0 2.97 2.158 5.377 5.3 5.377h.38V8.444a2.826 2.826 0 0 1-2.84-2.82V4.196h2.84V1.789h-2.84V0h-2.84Z"/></svg>
